<svg width="222" height="53" viewBox="0 0 222 53" fill="none" xmlns="http://www.w3.org/2000/svg">
<g filter="url(#filter0_d_287_704)">
<mask id="path-1-outside-1_287_704" maskUnits="userSpaceOnUse" x="4" y="0" width="214" height="45" fill="black">
<rect fill="white" x="4" width="214" height="45"/>
<path d="M5.52158 43V1.8129H21.8199C23.9773 1.8129 25.919 2.34245 27.6449 3.40155C29.3709 4.46064 30.7438 5.93161 31.7636 7.81445C32.7835 9.65806 33.2935 11.737 33.2935 14.0514C33.2935 16.4834 32.7835 18.6604 31.7636 20.5825C30.7438 22.4653 29.3709 23.9755 27.6449 25.113C25.919 26.2114 23.9773 26.7605 21.8199 26.7605H10.111V43H5.52158ZM10.111 22.2888H22.0553C23.2713 22.2888 24.35 21.9357 25.2914 21.2297C26.272 20.4844 27.0565 19.5037 27.6449 18.2877C28.2333 17.0325 28.5275 15.6008 28.5275 13.9925C28.5275 12.5412 28.2333 11.2467 27.6449 10.1092C27.0565 8.93238 26.272 8.01058 25.2914 7.34374C24.35 6.63768 23.2713 6.28464 22.0553 6.28464H10.111V22.2888ZM40.1621 43V1.8129H56.2839C58.6767 1.8129 60.8341 2.38167 62.7562 3.51922C64.7175 4.61755 66.2669 6.12774 67.4044 8.0498C68.542 9.97187 69.1107 12.1489 69.1107 14.5809C69.1107 16.856 68.5616 18.9154 67.4633 20.759C66.3649 22.6026 64.8744 24.0735 62.9915 25.1719C61.1087 26.231 58.9905 26.7605 56.6369 26.7605H44.7515V43H40.1621ZM65.2862 43L54.9306 24.8777L59.3435 23.3479L70.7582 43H65.2862ZM44.7515 22.2888H57.0488C58.5002 22.2888 59.775 21.9554 60.8733 21.2885C61.9717 20.6217 62.8346 19.7195 63.4622 18.5819C64.0898 17.4052 64.4037 16.0715 64.4037 14.5809C64.4037 12.9726 64.031 11.5409 63.2857 10.2857C62.5404 9.03045 61.5009 8.04981 60.1673 7.34374C58.8728 6.63768 57.3822 6.28464 55.6955 6.28464H44.7515V22.2888ZM93.4733 43.5884C90.5706 43.5884 87.8837 43.0785 85.4124 42.0586C82.9804 40.9995 80.8426 39.5285 78.999 37.6457C77.1946 35.7628 75.7825 33.5466 74.7626 30.9969C73.782 28.408 73.2917 25.5837 73.2917 22.5241C73.2917 19.4645 73.782 16.6599 74.7626 14.1102C75.7825 11.5213 77.1946 9.28542 78.999 7.40258C80.8426 5.48051 82.9804 4.00955 85.4124 2.98968C87.8837 1.93058 90.5706 1.40103 93.4733 1.40103C96.4153 1.40103 99.1022 1.93058 101.534 2.98968C104.005 4.00955 106.143 5.48051 107.948 7.40258C109.791 9.28542 111.203 11.5213 112.184 14.1102C113.204 16.6599 113.714 19.4645 113.714 22.5241C113.714 25.5445 113.204 28.3492 112.184 30.9381C111.203 33.4877 109.791 35.7236 107.948 37.6457C106.143 39.5285 104.005 40.9995 101.534 42.0586C99.1022 43.0785 96.4153 43.5884 93.4733 43.5884ZM93.4733 39.0578C95.7092 39.0578 97.7686 38.6655 99.6514 37.881C101.573 37.0573 103.221 35.9001 104.594 34.4095C105.967 32.919 107.026 31.1734 107.771 29.1729C108.556 27.1332 108.948 24.9169 108.948 22.5241C108.948 20.0921 108.556 17.8759 107.771 15.8754C107.026 13.8356 105.967 12.0705 104.594 10.5799C103.221 9.08929 101.573 7.93213 99.6514 7.10839C97.7686 6.28464 95.7092 5.87277 93.4733 5.87277C91.2375 5.87277 89.1585 6.28464 87.2364 7.10839C85.3536 7.93213 83.7257 9.08929 82.3528 10.5799C80.9799 12.0705 79.9208 13.8356 79.1755 15.8754C78.4302 17.8759 78.0576 20.0921 78.0576 22.5241C78.0576 24.9169 78.4302 27.1332 79.1755 29.1729C79.9208 31.1734 80.9799 32.919 82.3528 34.4095C83.7257 35.9001 85.3536 37.0573 87.2364 37.881C89.1585 38.6655 91.2375 39.0578 93.4733 39.0578ZM126.397 43V6.28464H114.629V1.8129H143.224V6.28464H130.986V43H126.397ZM149.025 43V1.8129H173.973V6.28464H153.615V38.5283H173.855V43H149.025ZM151.143 24.0539V19.5822H170.678V24.0539H151.143ZM182.287 43V1.8129H186.464L213.412 37.4692L212.589 38.5283C212.471 37.9006 212.373 36.9592 212.294 35.704C212.255 34.4488 212.196 33.0366 212.118 31.4676C212.079 29.8594 212.039 28.1923 212 26.4663C211.961 24.7404 211.922 23.0537 211.883 21.4062C211.883 19.7587 211.883 18.2681 211.883 16.9345V1.8129H216.472V43H212.177L185.346 7.81445L186.052 6.57884C186.17 8.14787 186.268 9.69729 186.347 11.2271C186.464 12.7569 186.543 14.2279 186.582 15.64C186.66 17.0521 186.719 18.3466 186.758 19.5234C186.798 20.7001 186.817 21.7004 186.817 22.5241C186.857 23.3479 186.876 23.9363 186.876 24.2893V43H182.287Z"/>
</mask>
<path d="M5.52158 43V1.8129H21.8199C23.9773 1.8129 25.919 2.34245 27.6449 3.40155C29.3709 4.46064 30.7438 5.93161 31.7636 7.81445C32.7835 9.65806 33.2935 11.737 33.2935 14.0514C33.2935 16.4834 32.7835 18.6604 31.7636 20.5825C30.7438 22.4653 29.3709 23.9755 27.6449 25.113C25.919 26.2114 23.9773 26.7605 21.8199 26.7605H10.111V43H5.52158ZM10.111 22.2888H22.0553C23.2713 22.2888 24.35 21.9357 25.2914 21.2297C26.272 20.4844 27.0565 19.5037 27.6449 18.2877C28.2333 17.0325 28.5275 15.6008 28.5275 13.9925C28.5275 12.5412 28.2333 11.2467 27.6449 10.1092C27.0565 8.93238 26.272 8.01058 25.2914 7.34374C24.35 6.63768 23.2713 6.28464 22.0553 6.28464H10.111V22.2888ZM40.1621 43V1.8129H56.2839C58.6767 1.8129 60.8341 2.38167 62.7562 3.51922C64.7175 4.61755 66.2669 6.12774 67.4044 8.0498C68.542 9.97187 69.1107 12.1489 69.1107 14.5809C69.1107 16.856 68.5616 18.9154 67.4633 20.759C66.3649 22.6026 64.8744 24.0735 62.9915 25.1719C61.1087 26.231 58.9905 26.7605 56.6369 26.7605H44.7515V43H40.1621ZM65.2862 43L54.9306 24.8777L59.3435 23.3479L70.7582 43H65.2862ZM44.7515 22.2888H57.0488C58.5002 22.2888 59.775 21.9554 60.8733 21.2885C61.9717 20.6217 62.8346 19.7195 63.4622 18.5819C64.0898 17.4052 64.4037 16.0715 64.4037 14.5809C64.4037 12.9726 64.031 11.5409 63.2857 10.2857C62.5404 9.03045 61.5009 8.04981 60.1673 7.34374C58.8728 6.63768 57.3822 6.28464 55.6955 6.28464H44.7515V22.2888ZM93.4733 43.5884C90.5706 43.5884 87.8837 43.0785 85.4124 42.0586C82.9804 40.9995 80.8426 39.5285 78.999 37.6457C77.1946 35.7628 75.7825 33.5466 74.7626 30.9969C73.782 28.408 73.2917 25.5837 73.2917 22.5241C73.2917 19.4645 73.782 16.6599 74.7626 14.1102C75.7825 11.5213 77.1946 9.28542 78.999 7.40258C80.8426 5.48051 82.9804 4.00955 85.4124 2.98968C87.8837 1.93058 90.5706 1.40103 93.4733 1.40103C96.4153 1.40103 99.1022 1.93058 101.534 2.98968C104.005 4.00955 106.143 5.48051 107.948 7.40258C109.791 9.28542 111.203 11.5213 112.184 14.1102C113.204 16.6599 113.714 19.4645 113.714 22.5241C113.714 25.5445 113.204 28.3492 112.184 30.9381C111.203 33.4877 109.791 35.7236 107.948 37.6457C106.143 39.5285 104.005 40.9995 101.534 42.0586C99.1022 43.0785 96.4153 43.5884 93.4733 43.5884ZM93.4733 39.0578C95.7092 39.0578 97.7686 38.6655 99.6514 37.881C101.573 37.0573 103.221 35.9001 104.594 34.4095C105.967 32.919 107.026 31.1734 107.771 29.1729C108.556 27.1332 108.948 24.9169 108.948 22.5241C108.948 20.0921 108.556 17.8759 107.771 15.8754C107.026 13.8356 105.967 12.0705 104.594 10.5799C103.221 9.08929 101.573 7.93213 99.6514 7.10839C97.7686 6.28464 95.7092 5.87277 93.4733 5.87277C91.2375 5.87277 89.1585 6.28464 87.2364 7.10839C85.3536 7.93213 83.7257 9.08929 82.3528 10.5799C80.9799 12.0705 79.9208 13.8356 79.1755 15.8754C78.4302 17.8759 78.0576 20.0921 78.0576 22.5241C78.0576 24.9169 78.4302 27.1332 79.1755 29.1729C79.9208 31.1734 80.9799 32.919 82.3528 34.4095C83.7257 35.9001 85.3536 37.0573 87.2364 37.881C89.1585 38.6655 91.2375 39.0578 93.4733 39.0578ZM126.397 43V6.28464H114.629V1.8129H143.224V6.28464H130.986V43H126.397ZM149.025 43V1.8129H173.973V6.28464H153.615V38.5283H173.855V43H149.025ZM151.143 24.0539V19.5822H170.678V24.0539H151.143ZM182.287 43V1.8129H186.464L213.412 37.4692L212.589 38.5283C212.471 37.9006 212.373 36.9592 212.294 35.704C212.255 34.4488 212.196 33.0366 212.118 31.4676C212.079 29.8594 212.039 28.1923 212 26.4663C211.961 24.7404 211.922 23.0537 211.883 21.4062C211.883 19.7587 211.883 18.2681 211.883 16.9345V1.8129H216.472V43H212.177L185.346 7.81445L186.052 6.57884C186.17 8.14787 186.268 9.69729 186.347 11.2271C186.464 12.7569 186.543 14.2279 186.582 15.64C186.66 17.0521 186.719 18.3466 186.758 19.5234C186.798 20.7001 186.817 21.7004 186.817 22.5241C186.857 23.3479 186.876 23.9363 186.876 24.2893V43H182.287Z" fill="black"/>
<path d="M5.52158 43H4.52158V44H5.52158V43ZM5.52158 1.8129V0.812901H4.52158V1.8129H5.52158ZM27.6449 3.40154L28.1679 2.54922L27.6449 3.40154ZM31.7636 7.81445L30.8843 8.29075L30.8886 8.29851L31.7636 7.81445ZM31.7636 20.5825L32.643 21.0588L32.647 21.0512L31.7636 20.5825ZM27.6449 25.113L28.1818 25.9567L28.1886 25.9524L28.1952 25.948L27.6449 25.113ZM10.111 26.7605V25.7605H9.111V26.7605H10.111ZM10.111 43V44H11.111V43H10.111ZM10.111 22.2888H9.111V23.2888H10.111V22.2888ZM25.2914 21.2297L25.8914 22.0297L25.8965 22.0258L25.2914 21.2297ZM27.6449 18.2877L28.5452 18.7233L28.5504 18.7122L27.6449 18.2877ZM27.6449 10.1092L26.7504 10.5564L26.7567 10.5686L27.6449 10.1092ZM25.2914 7.34374L24.6914 8.14374L24.7099 8.15764L24.7291 8.17067L25.2914 7.34374ZM10.111 6.28464V5.28464H9.111V6.28464H10.111ZM5.52158 43H6.52158V1.8129H5.52158H4.52158V43H5.52158ZM5.52158 1.8129V2.8129H21.8199V1.8129V0.812901H5.52158V1.8129ZM21.8199 1.8129V2.8129C23.8053 2.8129 25.5637 3.29771 27.1219 4.25387L27.6449 3.40154L28.1679 2.54922C26.2743 1.38719 24.1494 0.812901 21.8199 0.812901V1.8129ZM27.6449 3.40154L27.1219 4.25387C28.6894 5.21576 29.9432 6.55314 30.8844 8.29073L31.7636 7.81445L32.6429 7.33817C31.5444 5.31008 30.0523 3.70553 28.1679 2.54922L27.6449 3.40154ZM31.7636 7.81445L30.8886 8.29851C31.8186 9.9797 32.2934 11.8893 32.2934 14.0514H33.2934H34.2934C34.2934 11.5848 33.7484 9.33642 32.6387 7.33039L31.7636 7.81445ZM33.2934 14.0514H32.2934C32.2934 16.3395 31.8149 18.3524 30.8803 20.1137L31.7636 20.5825L32.647 21.0512C33.7521 18.9684 34.2934 16.6272 34.2934 14.0514H33.2934ZM31.7636 20.5825L30.8844 20.1062C29.94 21.8496 28.678 23.2345 27.0946 24.2781L27.6449 25.113L28.1952 25.948C30.0637 24.7165 31.5475 23.081 32.6429 21.0587L31.7636 20.5825ZM27.6449 25.113L27.1081 24.2694C25.5515 25.2599 23.798 25.7605 21.8199 25.7605V26.7605V27.7605C24.1566 27.7605 26.2865 27.1628 28.1818 25.9567L27.6449 25.113ZM21.8199 26.7605V25.7605H10.111V26.7605V27.7605H21.8199V26.7605ZM10.111 26.7605H9.111V43H10.111H11.111V26.7605H10.111ZM10.111 43V42H5.52158V43V44H10.111V43ZM10.111 22.2888V23.2888H22.0553V22.2888V21.2888H10.111V22.2888ZM22.0553 22.2888V23.2888C23.4799 23.2888 24.7708 22.8701 25.8914 22.0297L25.2914 21.2297L24.6914 20.4297C23.9292 21.0013 23.0626 21.2888 22.0553 21.2888V22.2888ZM25.2914 21.2297L25.8965 22.0258C27.0143 21.1763 27.8949 20.0671 28.5451 18.7233L27.6449 18.2877L26.7448 17.8522C26.2182 18.9404 25.5298 19.7925 24.6863 20.4335L25.2914 21.2297ZM27.6449 18.2877L28.5504 18.7122C29.2103 17.3045 29.5275 15.7241 29.5275 13.9925H28.5275H27.5275C27.5275 15.4775 27.2564 16.7606 26.7395 17.8633L27.6449 18.2877ZM28.5275 13.9925H29.5275C29.5275 12.4028 29.2043 10.9472 28.5332 9.64974L27.6449 10.1092L26.7567 10.5686C27.2624 11.5462 27.5275 12.6795 27.5275 13.9925H28.5275ZM27.6449 10.1092L28.5394 9.66195C27.8831 8.34939 26.9907 7.28996 25.8537 6.51681L25.2914 7.34374L24.7291 8.17067C25.5534 8.73119 26.23 9.51538 26.7505 10.5564L27.6449 10.1092ZM25.2914 7.34374L25.8914 6.54374C24.7708 5.70328 23.4799 5.28464 22.0553 5.28464V6.28464V7.28464C23.0626 7.28464 23.9292 7.57207 24.6914 8.14374L25.2914 7.34374ZM22.0553 6.28464V5.28464H10.111V6.28464V7.28464H22.0553V6.28464ZM10.111 6.28464H9.111V22.2888H10.111H11.111V6.28464H10.111ZM40.1621 43H39.1621V44H40.1621V43ZM40.1621 1.8129V0.812901H39.1621V1.8129H40.1621ZM62.7562 3.51922L62.2468 4.3798L62.2571 4.38589L62.2676 4.39173L62.7562 3.51922ZM67.4044 8.0498L68.265 7.54048V7.54048L67.4044 8.0498ZM62.9915 25.1719L63.4818 26.0434L63.4886 26.0396L63.4954 26.0356L62.9915 25.1719ZM44.7515 26.7605V25.7605H43.7515V26.7605H44.7515ZM44.7515 43V44H45.7515V43H44.7515ZM65.2862 43L64.418 43.4961L64.7059 44H65.2862V43ZM54.9306 24.8777L54.6031 23.9328L53.4645 24.3275L54.0624 25.3738L54.9306 24.8777ZM59.3435 23.3479L60.2082 22.8456L59.7944 22.1332L59.016 22.403L59.3435 23.3479ZM70.7582 43V44H72.4955L71.6229 42.4977L70.7582 43ZM44.7515 22.2888H43.7515V23.2888H44.7515V22.2888ZM63.4622 18.5819L64.3378 19.065L64.3412 19.0588L64.3446 19.0525L63.4622 18.5819ZM63.2857 10.2857L64.1456 9.77514L63.2857 10.2857ZM60.1673 7.34374L59.6884 8.2217L59.6994 8.22753L60.1673 7.34374ZM44.7515 6.28464V5.28464H43.7515V6.28464H44.7515ZM40.1621 43H41.1621V1.8129H40.1621H39.1621V43H40.1621ZM40.1621 1.8129V2.8129H56.2839V1.8129V0.812901H40.1621V1.8129ZM56.2839 1.8129V2.8129C58.5107 2.8129 60.49 3.34004 62.2468 4.3798L62.7562 3.51922L63.2655 2.65865C61.1782 1.42331 58.8426 0.812901 56.2839 0.812901V1.8129ZM62.7562 3.51922L62.2676 4.39173C64.0761 5.40449 65.4967 6.78983 66.5439 8.55913L67.4044 8.0498L68.265 7.54048C67.037 5.46565 65.3589 3.83061 63.2448 2.64672L62.7562 3.51922ZM67.4044 8.0498L66.5439 8.55912C67.5821 10.3134 68.1107 12.3117 68.1107 14.5809H69.1107H70.1107C70.1107 11.9861 69.5018 9.63033 68.265 7.54048L67.4044 8.0498ZM69.1107 14.5809H68.1107C68.1107 16.6871 67.6047 18.5678 66.6042 20.2472L67.4633 20.759L68.3224 21.2708C69.5185 19.263 70.1107 17.0249 70.1107 14.5809H69.1107ZM67.4633 20.759L66.6042 20.2472C65.5939 21.9429 64.2266 23.2937 62.4877 24.3081L62.9915 25.1719L63.4954 26.0356C65.5221 24.8534 67.1359 23.2623 68.3224 21.2708L67.4633 20.759ZM62.9915 25.1719L62.5013 24.3003C60.7813 25.2678 58.8345 25.7605 56.6369 25.7605V26.7605V27.7605C59.1464 27.7605 61.4361 27.1942 63.4818 26.0434L62.9915 25.1719ZM56.6369 26.7605V25.7605H44.7515V26.7605V27.7605H56.6369V26.7605ZM44.7515 26.7605H43.7515V43H44.7515H45.7515V26.7605H44.7515ZM44.7515 43V42H40.1621V43V44H44.7515V43ZM65.2862 43L66.1545 42.5039L55.7989 24.3815L54.9306 24.8777L54.0624 25.3738L64.418 43.4961L65.2862 43ZM54.9306 24.8777L55.2582 25.8225L59.6711 24.2927L59.3435 23.3479L59.016 22.403L54.6031 23.9328L54.9306 24.8777ZM59.3435 23.3479L58.4788 23.8501L69.8935 43.5023L70.7582 43L71.6229 42.4977L60.2082 22.8456L59.3435 23.3479ZM70.7582 43V42H65.2862V43V44H70.7582V43ZM44.7515 22.2888V23.2888H57.0488V22.2888V21.2888H44.7515V22.2888ZM57.0488 22.2888V23.2888C58.6589 23.2888 60.118 22.917 61.3923 22.1433L60.8733 21.2885L60.3544 20.4337C59.432 20.9937 58.3414 21.2888 57.0488 21.2888V22.2888ZM60.8733 21.2885L61.3923 22.1433C62.6417 21.3848 63.6268 20.3537 64.3378 19.065L63.4622 18.5819L62.5867 18.0989C62.0424 19.0853 61.3017 19.8586 60.3544 20.4337L60.8733 21.2885ZM63.4622 18.5819L64.3446 19.0525C65.0582 17.7145 65.4037 16.216 65.4037 14.5809H64.4037H63.4037C63.4037 15.927 63.1215 17.0958 62.5799 18.1113L63.4622 18.5819ZM64.4037 14.5809H65.4037C65.4037 12.8118 64.9917 11.2003 64.1456 9.77514L63.2857 10.2857L62.4259 10.7962C63.0703 11.8815 63.4037 13.1335 63.4037 14.5809H64.4037ZM63.2857 10.2857L64.1456 9.77514C63.3032 8.35632 62.1256 7.24899 60.6352 6.45995L60.1673 7.34374L59.6994 8.22753C60.8763 8.85062 61.7777 9.70458 62.4259 10.7962L63.2857 10.2857ZM60.1673 7.34374L60.6461 6.46585C59.1848 5.66876 57.5252 5.28464 55.6955 5.28464V6.28464V7.28464C57.2393 7.28464 58.5608 7.60659 59.6884 8.22164L60.1673 7.34374ZM55.6955 6.28464V5.28464H44.7515V6.28464V7.28464H55.6955V6.28464ZM44.7515 6.28464H43.7515V22.2888H44.7515H45.7515V6.28464H44.7515ZM85.4124 42.0586L85.0132 42.9754L85.022 42.9793L85.031 42.983L85.4124 42.0586ZM78.999 37.6457L78.277 38.3376L78.2845 38.3453L78.999 37.6457ZM74.7626 30.9969L73.8275 31.3511L73.8307 31.3597L73.8342 31.3683L74.7626 30.9969ZM74.7626 14.1102L73.8322 13.7437L73.8293 13.7512L74.7626 14.1102ZM78.999 7.40258L78.2773 6.71035L78.277 6.71067L78.999 7.40258ZM85.4124 2.98968L85.7992 3.9119L85.8064 3.90882L85.4124 2.98968ZM101.534 2.98968L101.135 3.90651L101.144 3.91037L101.153 3.91405L101.534 2.98968ZM107.948 7.40258L107.219 8.08702L107.226 8.09469L107.233 8.1022L107.948 7.40258ZM112.184 14.1102L111.249 14.4644L111.252 14.473L111.256 14.4816L112.184 14.1102ZM112.184 30.9381L111.254 30.5715L111.251 30.5791L112.184 30.9381ZM107.948 37.6457L107.226 36.9535L107.226 36.9538L107.948 37.6457ZM101.534 42.0586L101.921 42.9808L101.928 42.9777L101.534 42.0586ZM99.6514 37.881L100.036 38.8042L100.045 38.8002L99.6514 37.881ZM104.594 34.4095L103.858 33.7321L104.594 34.4095ZM107.771 29.1729L106.838 28.8139L106.834 28.8238L107.771 29.1729ZM107.771 15.8754L106.832 16.2185L106.836 16.2295L106.84 16.2404L107.771 15.8754ZM104.594 10.5799L103.858 11.2573V11.2573L104.594 10.5799ZM99.6514 7.10839L99.2506 8.02457L99.2575 8.02753L99.6514 7.10839ZM87.2364 7.10839L86.8425 6.18921L86.8356 6.19223L87.2364 7.10839ZM82.3528 10.5799L83.0884 11.2573V11.2573L82.3528 10.5799ZM79.1755 15.8754L80.1126 16.2245L80.1148 16.2185L79.1755 15.8754ZM79.1755 29.1729L78.2363 29.5161L78.2385 29.522L79.1755 29.1729ZM82.3528 34.4095L83.0884 33.7321L82.3528 34.4095ZM87.2364 37.881L86.8356 38.7972L86.847 38.8022L86.8585 38.8069L87.2364 37.881ZM93.4733 43.5884V42.5884C90.6902 42.5884 88.1341 42.1 85.7939 41.1342L85.4124 42.0586L85.031 42.983C87.6332 44.0569 90.4511 44.5884 93.4733 44.5884V43.5884ZM85.4124 42.0586L85.8117 41.1417C83.497 40.1337 81.4664 38.7362 79.7135 36.9461L78.999 37.6457L78.2845 38.3453C80.2188 40.3208 82.4639 41.8652 85.0132 42.9754L85.4124 42.0586ZM78.999 37.6457L79.721 36.9538C78.01 35.1684 76.6659 33.0625 75.6911 30.6255L74.7626 30.9969L73.8342 31.3683C74.8991 34.0307 76.3792 36.3573 78.277 38.3376L78.999 37.6457ZM74.7626 30.9969L75.6978 30.6427C74.7643 28.1783 74.2917 25.4754 74.2917 22.5241H73.2917H72.2917C72.2917 25.6921 72.7997 28.6377 73.8275 31.3511L74.7626 30.9969ZM73.2917 22.5241H74.2917C74.2917 19.5726 74.7644 16.8914 75.696 14.4692L74.7626 14.1102L73.8293 13.7512C72.7996 16.4284 72.2917 19.3564 72.2917 22.5241H73.2917ZM74.7626 14.1102L75.693 14.4767C76.6685 12.0006 78.0125 9.87728 79.721 8.09448L78.999 7.40258L78.277 6.71067C76.3768 8.69355 74.8965 11.042 73.8322 13.7437L74.7626 14.1102ZM78.999 7.40258L79.7207 8.0948C81.4705 6.2705 83.4947 4.87827 85.7992 3.91187L85.4124 2.98968L85.0257 2.06748C82.4662 3.14082 80.2147 4.69053 78.2773 6.71035L78.999 7.40258ZM85.4124 2.98968L85.8064 3.90882C88.1435 2.9072 90.6952 2.40103 93.4733 2.40103V1.40103V0.40103C90.4461 0.40103 87.6239 0.953953 85.0185 2.07053L85.4124 2.98968ZM93.4733 1.40103V2.40103C96.2929 2.40103 98.842 2.90797 101.135 3.90651L101.534 2.98968L101.934 2.07284C99.3624 0.953184 96.5376 0.40103 93.4733 0.40103V1.40103ZM101.534 2.98968L101.153 3.91405C103.494 4.88039 105.513 6.27026 107.219 8.08702L107.948 7.40258L108.677 6.71814C106.773 4.69077 104.517 3.1387 101.916 2.0653L101.534 2.98968ZM107.948 7.40258L107.233 8.1022C108.975 9.88141 110.315 11.998 111.249 14.4644L112.184 14.1102L113.119 13.756C112.092 11.0446 110.607 8.68942 108.662 6.70295L107.948 7.40258ZM112.184 14.1102L111.256 14.4816C112.223 16.9004 112.714 19.5772 112.714 22.5241H113.714H114.714C114.714 19.3518 114.185 16.4194 113.113 13.7388L112.184 14.1102ZM113.714 22.5241H112.714C112.714 25.4298 112.224 28.109 111.254 30.5715L112.184 30.9381L113.114 31.3046C114.184 28.5893 114.714 25.6592 114.714 22.5241H113.714ZM112.184 30.9381L111.251 30.5791C110.317 33.008 108.975 35.1298 107.226 36.9535L107.948 37.6457L108.669 38.3379C110.607 36.3174 112.09 33.9675 113.117 31.297L112.184 30.9381ZM107.948 37.6457L107.226 36.9538C105.517 38.7366 103.492 40.1316 101.14 41.1394L101.534 42.0586L101.928 42.9777C104.519 41.8674 106.769 40.3205 108.67 38.3376L107.948 37.6457ZM101.534 42.0586L101.148 41.1364C98.8514 42.0993 96.2978 42.5884 93.4733 42.5884V43.5884V44.5884C96.5327 44.5884 99.3531 44.0576 101.921 42.9808L101.534 42.0586ZM93.4733 39.0578V40.0578C95.8285 40.0578 98.0201 39.6441 100.036 38.8041L99.6514 37.881L99.2668 36.958C97.5171 37.687 95.59 38.0578 93.4733 38.0578V39.0578ZM99.6514 37.881L100.045 38.8002C102.093 37.9227 103.858 36.6847 105.329 35.087L104.594 34.4095L103.858 33.7321C102.584 35.1156 101.054 36.1919 99.2575 36.9619L99.6514 37.881ZM104.594 34.4095L105.329 35.087C106.795 33.496 107.92 31.6374 108.708 29.522L107.771 29.1729L106.834 28.8238C106.132 30.7094 105.139 32.3419 103.858 33.7321L104.594 34.4095ZM107.771 29.1729L108.704 29.5319C109.537 27.3672 109.948 25.028 109.948 22.5241H108.948H107.948C107.948 24.8058 107.574 26.8991 106.838 28.8139L107.771 29.1729ZM108.948 22.5241H109.948C109.948 19.9835 109.538 17.6414 108.702 15.5103L107.771 15.8754L106.84 16.2404C107.573 18.1103 107.948 20.2007 107.948 22.5241H108.948ZM107.771 15.8754L108.71 15.5322C107.923 13.3776 106.798 11.4967 105.329 9.90239L104.594 10.5799L103.858 11.2573C105.136 12.6442 106.129 14.2936 106.832 16.2185L107.771 15.8754ZM104.594 10.5799L105.329 9.9024C103.858 8.30472 102.093 7.06672 100.045 6.18924L99.6514 7.10839L99.2575 8.02753C101.054 8.79753 102.584 9.87385 103.858 11.2573L104.594 10.5799ZM99.6514 7.10839L100.052 6.19223C98.0322 5.30848 95.8349 4.87277 93.4733 4.87277V5.87277V6.87277C95.5835 6.87277 97.5049 7.26081 99.2506 8.02454L99.6514 7.10839ZM93.4733 5.87277V4.87277C91.1115 4.87277 88.8975 5.30853 86.8425 6.18924L87.2364 7.10839L87.6304 8.02753C89.4195 7.26075 91.3634 6.87277 93.4733 6.87277V5.87277ZM87.2364 7.10839L86.8356 6.19223C84.8277 7.07068 83.0854 8.30846 81.6173 9.9024L82.3528 10.5799L83.0884 11.2573C84.3661 9.87012 85.8795 8.79357 87.6373 8.02454L87.2364 7.10839ZM82.3528 10.5799L81.6173 9.9024C80.1489 11.4967 79.0235 13.3776 78.2363 15.5322L79.1755 15.8754L80.1148 16.2185C80.8181 14.2936 81.811 12.6442 83.0884 11.2573L82.3528 10.5799ZM79.1755 15.8754L78.2385 15.5262C77.4462 17.6529 77.0576 19.9893 77.0576 22.5241H78.0576H79.0576C79.0576 20.1949 79.4143 18.0989 80.1126 16.2245L79.1755 15.8754ZM78.0576 22.5241H77.0576C77.0576 25.0221 77.4469 27.3558 78.2363 29.5161L79.1755 29.1729L80.1148 28.8297C79.4136 26.9106 79.0576 24.8117 79.0576 22.5241H78.0576ZM79.1755 29.1729L78.2385 29.522C79.0266 31.6374 80.1519 33.496 81.6173 35.087L82.3528 34.4095L83.0884 33.7321C81.8079 32.3419 80.8151 30.7094 80.1126 28.8238L79.1755 29.1729ZM82.3528 34.4095L81.6173 35.087C83.0854 36.681 84.8277 37.9187 86.8356 38.7972L87.2364 37.881L87.6373 36.9649C85.8795 36.1958 84.3661 35.1193 83.0884 33.7321L82.3528 34.4095ZM87.2364 37.881L86.8585 38.8069C88.9096 39.644 91.118 40.0578 93.4733 40.0578V39.0578V38.0578C91.357 38.0578 89.4074 37.6871 87.6143 36.9552L87.2364 37.881ZM126.397 43H125.397V44H126.397V43ZM126.397 6.28464H127.397V5.28464H126.397V6.28464ZM114.629 6.28464H113.629V7.28464H114.629V6.28464ZM114.629 1.8129V0.812901H113.629V1.8129H114.629ZM143.224 1.8129H144.224V0.812901H143.224V1.8129ZM143.224 6.28464V7.28464H144.224V6.28464H143.224ZM130.986 6.28464V5.28464H129.986V6.28464H130.986ZM130.986 43V44H131.986V43H130.986ZM126.397 43H127.397V6.28464H126.397H125.397V43H126.397ZM126.397 6.28464V5.28464H114.629V6.28464V7.28464H126.397V6.28464ZM114.629 6.28464H115.629V1.8129H114.629H113.629V6.28464H114.629ZM114.629 1.8129V2.8129H143.224V1.8129V0.812901H114.629V1.8129ZM143.224 1.8129H142.224V6.28464H143.224H144.224V1.8129H143.224ZM143.224 6.28464V5.28464H130.986V6.28464V7.28464H143.224V6.28464ZM130.986 6.28464H129.986V43H130.986H131.986V6.28464H130.986ZM130.986 43V42H126.397V43V44H130.986V43ZM149.025 43H148.025V44H149.025V43ZM149.025 1.8129V0.812901H148.025V1.8129H149.025ZM173.973 1.8129H174.973V0.812901H173.973V1.8129ZM173.973 6.28464V7.28464H174.973V6.28464H173.973ZM153.615 6.28464V5.28464H152.615V6.28464H153.615ZM153.615 38.5283H152.615V39.5283H153.615V38.5283ZM173.855 38.5283H174.855V37.5283H173.855V38.5283ZM173.855 43V44H174.855V43H173.855ZM151.143 24.0539H150.143V25.0539H151.143V24.0539ZM151.143 19.5822V18.5822H150.143V19.5822H151.143ZM170.678 19.5822H171.678V18.5822H170.678V19.5822ZM170.678 24.0539V25.0539H171.678V24.0539H170.678ZM149.025 43H150.025V1.8129H149.025H148.025V43H149.025ZM149.025 1.8129V2.8129H173.973V1.8129V0.812901H149.025V1.8129ZM173.973 1.8129H172.973V6.28464H173.973H174.973V1.8129H173.973ZM173.973 6.28464V5.28464H153.615V6.28464V7.28464H173.973V6.28464ZM153.615 6.28464H152.615V38.5283H153.615H154.615V6.28464H153.615ZM153.615 38.5283V39.5283H173.855V38.5283V37.5283H153.615V38.5283ZM173.855 38.5283H172.855V43H173.855H174.855V38.5283H173.855ZM173.855 43V42H149.025V43V44H173.855V43ZM151.143 24.0539H152.143V19.5822H151.143H150.143V24.0539H151.143ZM151.143 19.5822V20.5822H170.678V19.5822V18.5822H151.143V19.5822ZM170.678 19.5822H169.678V24.0539H170.678H171.678V19.5822H170.678ZM170.678 24.0539V23.0539H151.143V24.0539V25.0539H170.678V24.0539ZM182.287 43H181.287V44H182.287V43ZM182.287 1.8129V0.812901H181.287V1.8129H182.287ZM186.464 1.8129L187.262 1.20996L186.962 0.812901H186.464V1.8129ZM213.412 37.4692L214.202 38.0831L214.672 37.4779L214.21 36.8662L213.412 37.4692ZM212.589 38.5283L211.606 38.7125L212.015 40.8947L213.378 39.1422L212.589 38.5283ZM212.294 35.704L211.295 35.7352L211.295 35.7508L211.296 35.7664L212.294 35.704ZM212.118 31.4676L211.118 31.492L211.119 31.5048L211.119 31.5176L212.118 31.4676ZM211.883 21.4062H210.883V21.4181L210.883 21.43L211.883 21.4062ZM211.883 1.8129V0.812901H210.883V1.8129H211.883ZM216.472 1.8129H217.472V0.812901H216.472V1.8129ZM216.472 43V44H217.472V43H216.472ZM212.177 43L211.382 43.6064L211.682 44H212.177V43ZM185.346 7.81445L184.478 7.31831L184.149 7.89377L184.551 8.42081L185.346 7.81445ZM186.052 6.57884L187.05 6.50405L186.805 3.24582L185.184 6.0827L186.052 6.57884ZM186.347 11.2271L185.348 11.2783L185.349 11.2911L185.35 11.3038L186.347 11.2271ZM186.582 15.64L185.582 15.6678L185.583 15.6816L185.583 15.6955L186.582 15.64ZM186.817 22.5241H185.817V22.5479L185.818 22.5717L186.817 22.5241ZM186.876 43V44H187.876V43H186.876ZM182.287 43H183.287V1.8129H182.287H181.287V43H182.287ZM182.287 1.8129V2.8129H186.464V1.8129V0.812901H182.287V1.8129ZM186.464 1.8129L185.666 2.41584L212.615 38.0721L213.412 37.4692L214.21 36.8662L187.262 1.20996L186.464 1.8129ZM213.412 37.4692L212.623 36.8552L211.799 37.9143L212.589 38.5283L213.378 39.1422L214.202 38.0831L213.412 37.4692ZM212.589 38.5283L213.572 38.344C213.466 37.7787 213.37 36.8871 213.292 35.6416L212.294 35.704L211.296 35.7664C211.375 37.0314 211.476 38.0226 211.606 38.7125L212.589 38.5283ZM212.294 35.704L213.294 35.6728C213.255 34.41 213.195 32.9915 213.117 31.4177L212.118 31.4676L211.119 31.5176C211.197 33.0818 211.256 34.4876 211.295 35.7352L212.294 35.704ZM212.118 31.4676L213.118 31.4432C213.078 29.8356 213.039 28.169 213 26.4436L212 26.4663L211.001 26.489C211.04 28.2155 211.079 29.8831 211.118 31.492L212.118 31.4676ZM212 26.4663L213 26.4436C212.961 24.7173 212.922 23.0303 212.882 21.3824L211.883 21.4062L210.883 21.43C210.922 23.0771 210.961 24.7635 211.001 26.489L212 26.4663ZM211.883 21.4062H212.883C212.883 21.403 212.883 21.3998 212.883 21.3965C212.883 21.3933 212.883 21.3901 212.883 21.3869C212.883 21.3837 212.883 21.3805 212.883 21.3773C212.883 21.374 212.883 21.3708 212.883 21.3676C212.883 21.3644 212.883 21.3612 212.883 21.358C212.883 21.3548 212.883 21.3515 212.883 21.3483C212.883 21.3451 212.883 21.3419 212.883 21.3387C212.883 21.3355 212.883 21.3323 212.883 21.3291C212.883 21.3259 212.883 21.3227 212.883 21.3195C212.883 21.3163 212.883 21.313 212.883 21.3098C212.883 21.3066 212.883 21.3034 212.883 21.3002C212.883 21.297 212.883 21.2938 212.883 21.2906C212.883 21.2874 212.883 21.2842 212.883 21.281C212.883 21.2778 212.883 21.2746 212.883 21.2714C212.883 21.2682 212.883 21.265 212.883 21.2618C212.883 21.2586 212.883 21.2554 212.883 21.2522C212.883 21.249 212.883 21.2458 212.883 21.2426C212.883 21.2394 212.883 21.2362 212.883 21.233C212.883 21.2298 212.883 21.2266 212.883 21.2234C212.883 21.2202 212.883 21.217 212.883 21.2138C212.883 21.2107 212.883 21.2075 212.883 21.2043C212.883 21.2011 212.883 21.1979 212.883 21.1947C212.883 21.1915 212.883 21.1883 212.883 21.1851C212.883 21.1819 212.883 21.1787 212.883 21.1755C212.883 21.1724 212.883 21.1692 212.883 21.166C212.883 21.1628 212.883 21.1596 212.883 21.1564C212.883 21.1532 212.883 21.1501 212.883 21.1469C212.883 21.1437 212.883 21.1405 212.883 21.1373C212.883 21.1341 212.883 21.1309 212.883 21.1278C212.883 21.1246 212.883 21.1214 212.883 21.1182C212.883 21.115 212.883 21.1118 212.883 21.1087C212.883 21.1055 212.883 21.1023 212.883 21.0991C212.883 21.0959 212.883 21.0928 212.883 21.0896C212.883 21.0864 212.883 21.0832 212.883 21.0801C212.883 21.0769 212.883 21.0737 212.883 21.0705C212.883 21.0674 212.883 21.0642 212.883 21.061C212.883 21.0578 212.883 21.0547 212.883 21.0515C212.883 21.0483 212.883 21.0451 212.883 21.042C212.883 21.0388 212.883 21.0356 212.883 21.0324C212.883 21.0293 212.883 21.0261 212.883 21.0229C212.883 21.0198 212.883 21.0166 212.883 21.0134C212.883 21.0103 212.883 21.0071 212.883 21.0039C212.883 21.0008 212.883 20.9976 212.883 20.9944C212.883 20.9913 212.883 20.9881 212.883 20.9849C212.883 20.9818 212.883 20.9786 212.883 20.9754C212.883 20.9723 212.883 20.9691 212.883 20.9659C212.883 20.9628 212.883 20.9596 212.883 20.9565C212.883 20.9533 212.883 20.9501 212.883 20.947C212.883 20.9438 212.883 20.9407 212.883 20.9375C212.883 20.9343 212.883 20.9312 212.883 20.928C212.883 20.9249 212.883 20.9217 212.883 20.9185C212.883 20.9154 212.883 20.9122 212.883 20.9091C212.883 20.9059 212.883 20.9028 212.883 20.8996C212.883 20.8965 212.883 20.8933 212.883 20.8902C212.883 20.887 212.883 20.8839 212.883 20.8807C212.883 20.8775 212.883 20.8744 212.883 20.8712C212.883 20.8681 212.883 20.8649 212.883 20.8618C212.883 20.8586 212.883 20.8555 212.883 20.8523C212.883 20.8492 212.883 20.8461 212.883 20.8429C212.883 20.8398 212.883 20.8366 212.883 20.8335C212.883 20.8303 212.883 20.8272 212.883 20.824C212.883 20.8209 212.883 20.8177 212.883 20.8146C212.883 20.8115 212.883 20.8083 212.883 20.8052C212.883 20.802 212.883 20.7989 212.883 20.7957C212.883 20.7926 212.883 20.7895 212.883 20.7863C212.883 20.7832 212.883 20.78 212.883 20.7769C212.883 20.7738 212.883 20.7706 212.883 20.7675C212.883 20.7644 212.883 20.7612 212.883 20.7581C212.883 20.7549 212.883 20.7518 212.883 20.7487C212.883 20.7455 212.883 20.7424 212.883 20.7393C212.883 20.7361 212.883 20.733 212.883 20.7299C212.883 20.7267 212.883 20.7236 212.883 20.7205C212.883 20.7173 212.883 20.7142 212.883 20.7111C212.883 20.7079 212.883 20.7048 212.883 20.7017C212.883 20.6986 212.883 20.6954 212.883 20.6923C212.883 20.6892 212.883 20.686 212.883 20.6829C212.883 20.6798 212.883 20.6767 212.883 20.6735C212.883 20.6704 212.883 20.6673 212.883 20.6642C212.883 20.661 212.883 20.6579 212.883 20.6548C212.883 20.6517 212.883 20.6485 212.883 20.6454C212.883 20.6423 212.883 20.6392 212.883 20.6361C212.883 20.6329 212.883 20.6298 212.883 20.6267C212.883 20.6236 212.883 20.6205 212.883 20.6173C212.883 20.6142 212.883 20.6111 212.883 20.608C212.883 20.6049 212.883 20.6018 212.883 20.5986C212.883 20.5955 212.883 20.5924 212.883 20.5893C212.883 20.5862 212.883 20.5831 212.883 20.58C212.883 20.5768 212.883 20.5737 212.883 20.5706C212.883 20.5675 212.883 20.5644 212.883 20.5613C212.883 20.5582 212.883 20.5551 212.883 20.5519C212.883 20.5488 212.883 20.5457 212.883 20.5426C212.883 20.5395 212.883 20.5364 212.883 20.5333C212.883 20.5302 212.883 20.5271 212.883 20.524C212.883 20.5209 212.883 20.5178 212.883 20.5147C212.883 20.5116 212.883 20.5084 212.883 20.5053C212.883 20.5022 212.883 20.4991 212.883 20.496C212.883 20.4929 212.883 20.4898 212.883 20.4867C212.883 20.4836 212.883 20.4805 212.883 20.4774C212.883 20.4743 212.883 20.4712 212.883 20.4681C212.883 20.465 212.883 20.4619 212.883 20.4588C212.883 20.4557 212.883 20.4526 212.883 20.4495C212.883 20.4464 212.883 20.4433 212.883 20.4402C212.883 20.4371 212.883 20.4341 212.883 20.431C212.883 20.4279 212.883 20.4248 212.883 20.4217C212.883 20.4186 212.883 20.4155 212.883 20.4124C212.883 20.4093 212.883 20.4062 212.883 20.4031C212.883 20.4 212.883 20.3969 212.883 20.3939C212.883 20.3908 212.883 20.3877 212.883 20.3846C212.883 20.3815 212.883 20.3784 212.883 20.3753C212.883 20.3722 212.883 20.3692 212.883 20.3661C212.883 20.363 212.883 20.3599 212.883 20.3568C212.883 20.3537 212.883 20.3506 212.883 20.3476C212.883 20.3445 212.883 20.3414 212.883 20.3383C212.883 20.3352 212.883 20.3321 212.883 20.3291C212.883 20.326 212.883 20.3229 212.883 20.3198C212.883 20.3167 212.883 20.3137 212.883 20.3106C212.883 20.3075 212.883 20.3044 212.883 20.3013C212.883 20.2983 212.883 20.2952 212.883 20.2921C212.883 20.289 212.883 20.286 212.883 20.2829C212.883 20.2798 212.883 20.2767 212.883 20.2737C212.883 20.2706 212.883 20.2675 212.883 20.2644C212.883 20.2614 212.883 20.2583 212.883 20.2552C212.883 20.2522 212.883 20.2491 212.883 20.246C212.883 20.2429 212.883 20.2399 212.883 20.2368C212.883 20.2337 212.883 20.2307 212.883 20.2276C212.883 20.2245 212.883 20.2215 212.883 20.2184C212.883 20.2153 212.883 20.2123 212.883 20.2092C212.883 20.2061 212.883 20.2031 212.883 20.2C212.883 20.1969 212.883 20.1939 212.883 20.1908C212.883 20.1877 212.883 20.1847 212.883 20.1816C212.883 20.1786 212.883 20.1755 212.883 20.1724C212.883 20.1694 212.883 20.1663 212.883 20.1633C212.883 20.1602 212.883 20.1571 212.883 20.1541C212.883 20.151 212.883 20.148 212.883 20.1449C212.883 20.1418 212.883 20.1388 212.883 20.1357C212.883 20.1327 212.883 20.1296 212.883 20.1266C212.883 20.1235 212.883 20.1205 212.883 20.1174C212.883 20.1143 212.883 20.1113 212.883 20.1082C212.883 20.1052 212.883 20.1021 212.883 20.0991C212.883 20.096 212.883 20.093 212.883 20.0899C212.883 20.0869 212.883 20.0838 212.883 20.0808C212.883 20.0777 212.883 20.0747 212.883 20.0716C212.883 20.0686 212.883 20.0655 212.883 20.0625C212.883 20.0595 212.883 20.0564 212.883 20.0534C212.883 20.0503 212.883 20.0473 212.883 20.0442C212.883 20.0412 212.883 20.0381 212.883 20.0351C212.883 20.0321 212.883 20.029 212.883 20.026C212.883 20.0229 212.883 20.0199 212.883 20.0168C212.883 20.0138 212.883 20.0108 212.883 20.0077C212.883 20.0047 212.883 20.0016 212.883 19.9986C212.883 19.9956 212.883 19.9925 212.883 19.9895C212.883 19.9865 212.883 19.9834 212.883 19.9804C212.883 19.9774 212.883 19.9743 212.883 19.9713C212.883 19.9682 212.883 19.9652 212.883 19.9622C212.883 19.9591 212.883 19.9561 212.883 19.9531C212.883 19.9501 212.883 19.947 212.883 19.944C212.883 19.941 212.883 19.9379 212.883 19.9349C212.883 19.9319 212.883 19.9288 212.883 19.9258C212.883 19.9228 212.883 19.9198 212.883 19.9167C212.883 19.9137 212.883 19.9107 212.883 19.9076C212.883 19.9046 212.883 19.9016 212.883 19.8986C212.883 19.8955 212.883 19.8925 212.883 19.8895C212.883 19.8865 212.883 19.8834 212.883 19.8804C212.883 19.8774 212.883 19.8744 212.883 19.8714C212.883 19.8683 212.883 19.8653 212.883 19.8623C212.883 19.8593 212.883 19.8563 212.883 19.8532C212.883 19.8502 212.883 19.8472 212.883 19.8442C212.883 19.8412 212.883 19.8381 212.883 19.8351C212.883 19.8321 212.883 19.8291 212.883 19.8261C212.883 19.8231 212.883 19.8201 212.883 19.817C212.883 19.814 212.883 19.811 212.883 19.808C212.883 19.805 212.883 19.802 212.883 19.799C212.883 19.7959 212.883 19.7929 212.883 19.7899C212.883 19.7869 212.883 19.7839 212.883 19.7809C212.883 19.7779 212.883 19.7749 212.883 19.7719C212.883 19.7689 212.883 19.7659 212.883 19.7628C212.883 19.7598 212.883 19.7568 212.883 19.7538C212.883 19.7508 212.883 19.7478 212.883 19.7448C212.883 19.7418 212.883 19.7388 212.883 19.7358C212.883 19.7328 212.883 19.7298 212.883 19.7268C212.883 19.7238 212.883 19.7208 212.883 19.7178C212.883 19.7148 212.883 19.7118 212.883 19.7088C212.883 19.7058 212.883 19.7028 212.883 19.6998C212.883 19.6968 212.883 19.6938 212.883 19.6908C212.883 19.6878 212.883 19.6848 212.883 19.6818C212.883 19.6788 212.883 19.6758 212.883 19.6728C212.883 19.6698 212.883 19.6668 212.883 19.6638C212.883 19.6608 212.883 19.6578 212.883 19.6549C212.883 19.6519 212.883 19.6489 212.883 19.6459C212.883 19.6429 212.883 19.6399 212.883 19.6369C212.883 19.6339 212.883 19.6309 212.883 19.6279C212.883 19.6249 212.883 19.622 212.883 19.619C212.883 19.616 212.883 19.613 212.883 19.61C212.883 19.607 212.883 19.604 212.883 19.601C212.883 19.5981 212.883 19.5951 212.883 19.5921C212.883 19.5891 212.883 19.5861 212.883 19.5831C212.883 19.5802 212.883 19.5772 212.883 19.5742C212.883 19.5712 212.883 19.5682 212.883 19.5653C212.883 19.5623 212.883 19.5593 212.883 19.5563C212.883 19.5533 212.883 19.5504 212.883 19.5474C212.883 19.5444 212.883 19.5414 212.883 19.5384C212.883 19.5355 212.883 19.5325 212.883 19.5295C212.883 19.5265 212.883 19.5236 212.883 19.5206C212.883 19.5176 212.883 19.5146 212.883 19.5117C212.883 19.5087 212.883 19.5057 212.883 19.5027C212.883 19.4998 212.883 19.4968 212.883 19.4938C212.883 19.4909 212.883 19.4879 212.883 19.4849C212.883 19.4819 212.883 19.479 212.883 19.476C212.883 19.473 212.883 19.4701 212.883 19.4671C212.883 19.4641 212.883 19.4612 212.883 19.4582C212.883 19.4552 212.883 19.4523 212.883 19.4493C212.883 19.4463 212.883 19.4434 212.883 19.4404C212.883 19.4374 212.883 19.4345 212.883 19.4315C212.883 19.4286 212.883 19.4256 212.883 19.4226C212.883 19.4197 212.883 19.4167 212.883 19.4137C212.883 19.4108 212.883 19.4078 212.883 19.4049C212.883 19.4019 212.883 19.399 212.883 19.396C212.883 19.393 212.883 19.3901 212.883 19.3871C212.883 19.3842 212.883 19.3812 212.883 19.3783C212.883 19.3753 212.883 19.3723 212.883 19.3694C212.883 19.3664 212.883 19.3635 212.883 19.3605C212.883 19.3576 212.883 19.3546 212.883 19.3517C212.883 19.3487 212.883 19.3458 212.883 19.3428C212.883 19.3399 212.883 19.3369 212.883 19.334C212.883 19.331 212.883 19.3281 212.883 19.3251C212.883 19.3222 212.883 19.3192 212.883 19.3163C212.883 19.3133 212.883 19.3104 212.883 19.3074C212.883 19.3045 212.883 19.3015 212.883 19.2986C212.883 19.2957 212.883 19.2927 212.883 19.2898C212.883 19.2868 212.883 19.2839 212.883 19.2809C212.883 19.278 212.883 19.2751 212.883 19.2721C212.883 19.2692 212.883 19.2662 212.883 19.2633C212.883 19.2603 212.883 19.2574 212.883 19.2545C212.883 19.2515 212.883 19.2486 212.883 19.2457C212.883 19.2427 212.883 19.2398 212.883 19.2368C212.883 19.2339 212.883 19.231 212.883 19.228C212.883 19.2251 212.883 19.2222 212.883 19.2192C212.883 19.2163 212.883 19.2134 212.883 19.2104C212.883 19.2075 212.883 19.2046 212.883 19.2016C212.883 19.1987 212.883 19.1958 212.883 19.1928C212.883 19.1899 212.883 19.187 212.883 19.1841C212.883 19.1811 212.883 19.1782 212.883 19.1753C212.883 19.1723 212.883 19.1694 212.883 19.1665C212.883 19.1636 212.883 19.1606 212.883 19.1577C212.883 19.1548 212.883 19.1519 212.883 19.1489C212.883 19.146 212.883 19.1431 212.883 19.1402C212.883 19.1372 212.883 19.1343 212.883 19.1314C212.883 19.1285 212.883 19.1255 212.883 19.1226C212.883 19.1197 212.883 19.1168 212.883 19.1139C212.883 19.111 212.883 19.108 212.883 19.1051C212.883 19.1022 212.883 19.0993 212.883 19.0964C212.883 19.0934 212.883 19.0905 212.883 19.0876C212.883 19.0847 212.883 19.0818 212.883 19.0789C212.883 19.0759 212.883 19.073 212.883 19.0701C212.883 19.0672 212.883 19.0643 212.883 19.0614C212.883 19.0585 212.883 19.0556 212.883 19.0526C212.883 19.0497 212.883 19.0468 212.883 19.0439C212.883 19.041 212.883 19.0381 212.883 19.0352C212.883 19.0323 212.883 19.0294 212.883 19.0265C212.883 19.0236 212.883 19.0206 212.883 19.0177C212.883 19.0148 212.883 19.0119 212.883 19.009C212.883 19.0061 212.883 19.0032 212.883 19.0003C212.883 18.9974 212.883 18.9945 212.883 18.9916C212.883 18.9887 212.883 18.9858 212.883 18.9829C212.883 18.98 212.883 18.9771 212.883 18.9742C212.883 18.9713 212.883 18.9684 212.883 18.9655C212.883 18.9626 212.883 18.9597 212.883 18.9568C212.883 18.9539 212.883 18.951 212.883 18.9481C212.883 18.9452 212.883 18.9423 212.883 18.9394C212.883 18.9365 212.883 18.9336 212.883 18.9307C212.883 18.9278 212.883 18.9249 212.883 18.922C212.883 18.9191 212.883 18.9163 212.883 18.9134C212.883 18.9105 212.883 18.9076 212.883 18.9047C212.883 18.9018 212.883 18.8989 212.883 18.896C212.883 18.8931 212.883 18.8902 212.883 18.8873C212.883 18.8845 212.883 18.8816 212.883 18.8787C212.883 18.8758 212.883 18.8729 212.883 18.87C212.883 18.8671 212.883 18.8643 212.883 18.8614C212.883 18.8585 212.883 18.8556 212.883 18.8527C212.883 18.8498 212.883 18.8469 212.883 18.8441C212.883 18.8412 212.883 18.8383 212.883 18.8354C212.883 18.8325 212.883 18.8297 212.883 18.8268C212.883 18.8239 212.883 18.821 212.883 18.8181C212.883 18.8153 212.883 18.8124 212.883 18.8095C212.883 18.8066 212.883 18.8037 212.883 18.8009C212.883 18.798 212.883 18.7951 212.883 18.7922C212.883 18.7894 212.883 18.7865 212.883 18.7836C212.883 18.7807 212.883 18.7779 212.883 18.775C212.883 18.7721 212.883 18.7693 212.883 18.7664C212.883 18.7635 212.883 18.7606 212.883 18.7578C212.883 18.7549 212.883 18.752 212.883 18.7492C212.883 18.7463 212.883 18.7434 212.883 18.7406C212.883 18.7377 212.883 18.7348 212.883 18.7319C212.883 18.7291 212.883 18.7262 212.883 18.7234C212.883 18.7205 212.883 18.7176 212.883 18.7148C212.883 18.7119 212.883 18.709 212.883 18.7062C212.883 18.7033 212.883 18.7004 212.883 18.6976C212.883 18.6947 212.883 18.6918 212.883 18.689C212.883 18.6861 212.883 18.6833 212.883 18.6804C212.883 18.6775 212.883 18.6747 212.883 18.6718C212.883 18.669 212.883 18.6661 212.883 18.6633C212.883 18.6604 212.883 18.6575 212.883 18.6547C212.883 18.6518 212.883 18.649 212.883 18.6461C212.883 18.6433 212.883 18.6404 212.883 18.6376C212.883 18.6347 212.883 18.6318 212.883 18.629C212.883 18.6261 212.883 18.6233 212.883 18.6204C212.883 18.6176 212.883 18.6147 212.883 18.6119C212.883 18.609 212.883 18.6062 212.883 18.6033C212.883 18.6005 212.883 18.5976 212.883 18.5948C212.883 18.5919 212.883 18.5891 212.883 18.5863C212.883 18.5834 212.883 18.5806 212.883 18.5777C212.883 18.5749 212.883 18.572 212.883 18.5692C212.883 18.5663 212.883 18.5635 212.883 18.5606C212.883 18.5578 212.883 18.555 212.883 18.5521C212.883 18.5493 212.883 18.5464 212.883 18.5436C212.883 18.5408 212.883 18.5379 212.883 18.5351C212.883 18.5322 212.883 18.5294 212.883 18.5266C212.883 18.5237 212.883 18.5209 212.883 18.518C212.883 18.5152 212.883 18.5124 212.883 18.5095C212.883 18.5067 212.883 18.5039 212.883 18.501C212.883 18.4982 212.883 18.4954 212.883 18.4925C212.883 18.4897 212.883 18.4869 212.883 18.484C212.883 18.4812 212.883 18.4784 212.883 18.4755C212.883 18.4727 212.883 18.4699 212.883 18.467C212.883 18.4642 212.883 18.4614 212.883 18.4586C212.883 18.4557 212.883 18.4529 212.883 18.4501C212.883 18.4472 212.883 18.4444 212.883 18.4416C212.883 18.4388 212.883 18.4359 212.883 18.4331C212.883 18.4303 212.883 18.4275 212.883 18.4246C212.883 18.4218 212.883 18.419 212.883 18.4162C212.883 18.4133 212.883 18.4105 212.883 18.4077C212.883 18.4049 212.883 18.4021 212.883 18.3992C212.883 18.3964 212.883 18.3936 212.883 18.3908C212.883 18.388 212.883 18.3851 212.883 18.3823C212.883 18.3795 212.883 18.3767 212.883 18.3739C212.883 18.3711 212.883 18.3682 212.883 18.3654C212.883 18.3626 212.883 18.3598 212.883 18.357C212.883 18.3542 212.883 18.3514 212.883 18.3485C212.883 18.3457 212.883 18.3429 212.883 18.3401C212.883 18.3373 212.883 18.3345 212.883 18.3317C212.883 18.3289 212.883 18.326 212.883 18.3232C212.883 18.3204 212.883 18.3176 212.883 18.3148C212.883 18.312 212.883 18.3092 212.883 18.3064C212.883 18.3036 212.883 18.3008 212.883 18.298C212.883 18.2952 212.883 18.2924 212.883 18.2896C212.883 18.2867 212.883 18.2839 212.883 18.2811C212.883 18.2783 212.883 18.2755 212.883 18.2727C212.883 18.2699 212.883 18.2671 212.883 18.2643C212.883 18.2615 212.883 18.2587 212.883 18.2559C212.883 18.2531 212.883 18.2503 212.883 18.2475C212.883 18.2447 212.883 18.2419 212.883 18.2391C212.883 18.2363 212.883 18.2335 212.883 18.2307C212.883 18.2279 212.883 18.2251 212.883 18.2224C212.883 18.2196 212.883 18.2168 212.883 18.214C212.883 18.2112 212.883 18.2084 212.883 18.2056C212.883 18.2028 212.883 18.2 212.883 18.1972C212.883 18.1944 212.883 18.1916 212.883 18.1888C212.883 18.1861 212.883 18.1833 212.883 18.1805C212.883 18.1777 212.883 18.1749 212.883 18.1721C212.883 18.1693 212.883 18.1665 212.883 18.1637C212.883 18.161 212.883 18.1582 212.883 18.1554C212.883 18.1526 212.883 18.1498 212.883 18.147C212.883 18.1442 212.883 18.1415 212.883 18.1387C212.883 18.1359 212.883 18.1331 212.883 18.1303C212.883 18.1275 212.883 18.1248 212.883 18.122C212.883 18.1192 212.883 18.1164 212.883 18.1136C212.883 18.1109 212.883 18.1081 212.883 18.1053C212.883 18.1025 212.883 18.0998 212.883 18.097C212.883 18.0942 212.883 18.0914 212.883 18.0886C212.883 18.0859 212.883 18.0831 212.883 18.0803C212.883 18.0775 212.883 18.0748 212.883 18.072C212.883 18.0692 212.883 18.0664 212.883 18.0637C212.883 18.0609 212.883 18.0581 212.883 18.0554C212.883 18.0526 212.883 18.0498 212.883 18.0471C212.883 18.0443 212.883 18.0415 212.883 18.0387C212.883 18.036 212.883 18.0332 212.883 18.0304C212.883 18.0277 212.883 18.0249 212.883 18.0221C212.883 18.0194 212.883 18.0166 212.883 18.0138C212.883 18.0111 212.883 18.0083 212.883 18.0055C212.883 18.0028 212.883 18 212.883 17.9973C212.883 17.9945 212.883 17.9917 212.883 17.989C212.883 17.9862 212.883 17.9834 212.883 17.9807C212.883 17.9779 212.883 17.9752 212.883 17.9724C212.883 17.9696 212.883 17.9669 212.883 17.9641C212.883 17.9614 212.883 17.9586 212.883 17.9559C212.883 17.9531 212.883 17.9503 212.883 17.9476C212.883 17.9448 212.883 17.9421 212.883 17.9393C212.883 17.9366 212.883 17.9338 212.883 17.9311C212.883 17.9283 212.883 17.9256 212.883 17.9228C212.883 17.92 212.883 17.9173 212.883 17.9145C212.883 17.9118 212.883 17.909 212.883 17.9063C212.883 17.9035 212.883 17.9008 212.883 17.898C212.883 17.8953 212.883 17.8926 212.883 17.8898C212.883 17.8871 212.883 17.8843 212.883 17.8816C212.883 17.8788 212.883 17.8761 212.883 17.8733C212.883 17.8706 212.883 17.8678 212.883 17.8651C212.883 17.8624 212.883 17.8596 212.883 17.8569C212.883 17.8541 212.883 17.8514 212.883 17.8486C212.883 17.8459 212.883 17.8432 212.883 17.8404C212.883 17.8377 212.883 17.8349 212.883 17.8322C212.883 17.8295 212.883 17.8267 212.883 17.824C212.883 17.8212 212.883 17.8185 212.883 17.8158C212.883 17.813 212.883 17.8103 212.883 17.8076C212.883 17.8048 212.883 17.8021 212.883 17.7994C212.883 17.7966 212.883 17.7939 212.883 17.7912C212.883 17.7884 212.883 17.7857 212.883 17.783C212.883 17.7802 212.883 17.7775 212.883 17.7748C212.883 17.772 212.883 17.7693 212.883 17.7666C212.883 17.7639 212.883 17.7611 212.883 17.7584C212.883 17.7557 212.883 17.7529 212.883 17.7502C212.883 17.7475 212.883 17.7448 212.883 17.742C212.883 17.7393 212.883 17.7366 212.883 17.7339C212.883 17.7311 212.883 17.7284 212.883 17.7257C212.883 17.723 212.883 17.7202 212.883 17.7175C212.883 17.7148 212.883 17.7121 212.883 17.7094C212.883 17.7066 212.883 17.7039 212.883 17.7012C212.883 17.6985 212.883 17.6958 212.883 17.693C212.883 17.6903 212.883 17.6876 212.883 17.6849C212.883 17.6822 212.883 17.6794 212.883 17.6767C212.883 17.674 212.883 17.6713 212.883 17.6686C212.883 17.6659 212.883 17.6632 212.883 17.6604C212.883 17.6577 212.883 17.655 212.883 17.6523C212.883 17.6496 212.883 17.6469 212.883 17.6442C212.883 17.6415 212.883 17.6387 212.883 17.636C212.883 17.6333 212.883 17.6306 212.883 17.6279C212.883 17.6252 212.883 17.6225 212.883 17.6198C212.883 17.6171 212.883 17.6144 212.883 17.6117C212.883 17.609 212.883 17.6062 212.883 17.6035C212.883 17.6008 212.883 17.5981 212.883 17.5954C212.883 17.5927 212.883 17.59 212.883 17.5873C212.883 17.5846 212.883 17.5819 212.883 17.5792C212.883 17.5765 212.883 17.5738 212.883 17.5711C212.883 17.5684 212.883 17.5657 212.883 17.563C212.883 17.5603 212.883 17.5576 212.883 17.5549C212.883 17.5522 212.883 17.5495 212.883 17.5468C212.883 17.5441 212.883 17.5414 212.883 17.5387C212.883 17.536 212.883 17.5333 212.883 17.5306C212.883 17.5279 212.883 17.5252 212.883 17.5226C212.883 17.5199 212.883 17.5172 212.883 17.5145C212.883 17.5118 212.883 17.5091 212.883 17.5064C212.883 17.5037 212.883 17.501 212.883 17.4983C212.883 17.4956 212.883 17.493 212.883 17.4903C212.883 17.4876 212.883 17.4849 212.883 17.4822C212.883 17.4795 212.883 17.4768 212.883 17.4741C212.883 17.4715 212.883 17.4688 212.883 17.4661C212.883 17.4634 212.883 17.4607 212.883 17.458C212.883 17.4553 212.883 17.4527 212.883 17.45C212.883 17.4473 212.883 17.4446 212.883 17.4419C212.883 17.4393 212.883 17.4366 212.883 17.4339C212.883 17.4312 212.883 17.4285 212.883 17.4259C212.883 17.4232 212.883 17.4205 212.883 17.4178C212.883 17.4151 212.883 17.4125 212.883 17.4098C212.883 17.4071 212.883 17.4044 212.883 17.4018C212.883 17.3991 212.883 17.3964 212.883 17.3937C212.883 17.3911 212.883 17.3884 212.883 17.3857C212.883 17.383 212.883 17.3804 212.883 17.3777C212.883 17.375 212.883 17.3724 212.883 17.3697C212.883 17.367 212.883 17.3643 212.883 17.3617C212.883 17.359 212.883 17.3563 212.883 17.3537C212.883 17.351 212.883 17.3483 212.883 17.3457C212.883 17.343 212.883 17.3403 212.883 17.3377C212.883 17.335 212.883 17.3323 212.883 17.3297C212.883 17.327 212.883 17.3243 212.883 17.3217C212.883 17.319 212.883 17.3163 212.883 17.3137C212.883 17.311 212.883 17.3084 212.883 17.3057C212.883 17.303 212.883 17.3004 212.883 17.2977C212.883 17.2951 212.883 17.2924 212.883 17.2897C212.883 17.2871 212.883 17.2844 212.883 17.2818C212.883 17.2791 212.883 17.2765 212.883 17.2738C212.883 17.2711 212.883 17.2685 212.883 17.2658C212.883 17.2632 212.883 17.2605 212.883 17.2579C212.883 17.2552 212.883 17.2526 212.883 17.2499C212.883 17.2472 212.883 17.2446 212.883 17.2419C212.883 17.2393 212.883 17.2366 212.883 17.234C212.883 17.2313 212.883 17.2287 212.883 17.226C212.883 17.2234 212.883 17.2207 212.883 17.2181C212.883 17.2155 212.883 17.2128 212.883 17.2102C212.883 17.2075 212.883 17.2049 212.883 17.2022C212.883 17.1996 212.883 17.1969 212.883 17.1943C212.883 17.1916 212.883 17.189 212.883 17.1864C212.883 17.1837 212.883 17.1811 212.883 17.1784C212.883 17.1758 212.883 17.1731 212.883 17.1705C212.883 17.1679 212.883 17.1652 212.883 17.1626C212.883 17.1599 212.883 17.1573 212.883 17.1547C212.883 17.152 212.883 17.1494 212.883 17.1468C212.883 17.1441 212.883 17.1415 212.883 17.1388C212.883 17.1362 212.883 17.1336 212.883 17.1309C212.883 17.1283 212.883 17.1257 212.883 17.123C212.883 17.1204 212.883 17.1178 212.883 17.1151C212.883 17.1125 212.883 17.1099 212.883 17.1072C212.883 17.1046 212.883 17.102 212.883 17.0993C212.883 17.0967 212.883 17.0941 212.883 17.0915C212.883 17.0888 212.883 17.0862 212.883 17.0836C212.883 17.0809 212.883 17.0783 212.883 17.0757C212.883 17.0731 212.883 17.0704 212.883 17.0678C212.883 17.0652 212.883 17.0626 212.883 17.0599C212.883 17.0573 212.883 17.0547 212.883 17.0521C212.883 17.0494 212.883 17.0468 212.883 17.0442C212.883 17.0416 212.883 17.039 212.883 17.0363C212.883 17.0337 212.883 17.0311 212.883 17.0285C212.883 17.0259 212.883 17.0232 212.883 17.0206C212.883 17.018 212.883 17.0154 212.883 17.0128C212.883 17.0102 212.883 17.0075 212.883 17.0049C212.883 17.0023 212.883 16.9997 212.883 16.9971C212.883 16.9945 212.883 16.9919 212.883 16.9892C212.883 16.9866 212.883 16.984 212.883 16.9814C212.883 16.9788 212.883 16.9762 212.883 16.9736C212.883 16.971 212.883 16.9683 212.883 16.9657C212.883 16.9631 212.883 16.9605 212.883 16.9579C212.883 16.9553 212.883 16.9527 212.883 16.9501C212.883 16.9475 212.883 16.9449 212.883 16.9423C212.883 16.9397 212.883 16.9371 212.883 16.9344H211.883H210.883C210.883 16.9371 210.883 16.9397 210.883 16.9423C210.883 16.9449 210.883 16.9475 210.883 16.9501C210.883 16.9527 210.883 16.9553 210.883 16.9579C210.883 16.9605 210.883 16.9631 210.883 16.9657C210.883 16.9683 210.883 16.971 210.883 16.9736C210.883 16.9762 210.883 16.9788 210.883 16.9814C210.883 16.984 210.883 16.9866 210.883 16.9892C210.883 16.9919 210.883 16.9945 210.883 16.9971C210.883 16.9997 210.883 17.0023 210.883 17.0049C210.883 17.0075 210.883 17.0102 210.883 17.0128C210.883 17.0154 210.883 17.018 210.883 17.0206C210.883 17.0232 210.883 17.0259 210.883 17.0285C210.883 17.0311 210.883 17.0337 210.883 17.0363C210.883 17.039 210.883 17.0416 210.883 17.0442C210.883 17.0468 210.883 17.0494 210.883 17.0521C210.883 17.0547 210.883 17.0573 210.883 17.0599C210.883 17.0626 210.883 17.0652 210.883 17.0678C210.883 17.0704 210.883 17.0731 210.883 17.0757C210.883 17.0783 210.883 17.0809 210.883 17.0836C210.883 17.0862 210.883 17.0888 210.883 17.0915C210.883 17.0941 210.883 17.0967 210.883 17.0993C210.883 17.102 210.883 17.1046 210.883 17.1072C210.883 17.1099 210.883 17.1125 210.883 17.1151C210.883 17.1178 210.883 17.1204 210.883 17.123C210.883 17.1257 210.883 17.1283 210.883 17.1309C210.883 17.1336 210.883 17.1362 210.883 17.1388C210.883 17.1415 210.883 17.1441 210.883 17.1468C210.883 17.1494 210.883 17.152 210.883 17.1547C210.883 17.1573 210.883 17.1599 210.883 17.1626C210.883 17.1652 210.883 17.1679 210.883 17.1705C210.883 17.1731 210.883 17.1758 210.883 17.1784C210.883 17.1811 210.883 17.1837 210.883 17.1864C210.883 17.189 210.883 17.1916 210.883 17.1943C210.883 17.1969 210.883 17.1996 210.883 17.2022C210.883 17.2049 210.883 17.2075 210.883 17.2102C210.883 17.2128 210.883 17.2155 210.883 17.2181C210.883 17.2207 210.883 17.2234 210.883 17.226C210.883 17.2287 210.883 17.2313 210.883 17.234C210.883 17.2366 210.883 17.2393 210.883 17.2419C210.883 17.2446 210.883 17.2472 210.883 17.2499C210.883 17.2526 210.883 17.2552 210.883 17.2579C210.883 17.2605 210.883 17.2632 210.883 17.2658C210.883 17.2685 210.883 17.2711 210.883 17.2738C210.883 17.2765 210.883 17.2791 210.883 17.2818C210.883 17.2844 210.883 17.2871 210.883 17.2897C210.883 17.2924 210.883 17.2951 210.883 17.2977C210.883 17.3004 210.883 17.303 210.883 17.3057C210.883 17.3084 210.883 17.311 210.883 17.3137C210.883 17.3163 210.883 17.319 210.883 17.3217C210.883 17.3243 210.883 17.327 210.883 17.3297C210.883 17.3323 210.883 17.335 210.883 17.3377C210.883 17.3403 210.883 17.343 210.883 17.3457C210.883 17.3483 210.883 17.351 210.883 17.3537C210.883 17.3563 210.883 17.359 210.883 17.3617C210.883 17.3643 210.883 17.367 210.883 17.3697C210.883 17.3724 210.883 17.375 210.883 17.3777C210.883 17.3804 210.883 17.383 210.883 17.3857C210.883 17.3884 210.883 17.3911 210.883 17.3937C210.883 17.3964 210.883 17.3991 210.883 17.4018C210.883 17.4044 210.883 17.4071 210.883 17.4098C210.883 17.4125 210.883 17.4151 210.883 17.4178C210.883 17.4205 210.883 17.4232 210.883 17.4259C210.883 17.4285 210.883 17.4312 210.883 17.4339C210.883 17.4366 210.883 17.4393 210.883 17.4419C210.883 17.4446 210.883 17.4473 210.883 17.45C210.883 17.4527 210.883 17.4553 210.883 17.458C210.883 17.4607 210.883 17.4634 210.883 17.4661C210.883 17.4688 210.883 17.4715 210.883 17.4741C210.883 17.4768 210.883 17.4795 210.883 17.4822C210.883 17.4849 210.883 17.4876 210.883 17.4903C210.883 17.493 210.883 17.4956 210.883 17.4983C210.883 17.501 210.883 17.5037 210.883 17.5064C210.883 17.5091 210.883 17.5118 210.883 17.5145C210.883 17.5172 210.883 17.5199 210.883 17.5226C210.883 17.5252 210.883 17.5279 210.883 17.5306C210.883 17.5333 210.883 17.536 210.883 17.5387C210.883 17.5414 210.883 17.5441 210.883 17.5468C210.883 17.5495 210.883 17.5522 210.883 17.5549C210.883 17.5576 210.883 17.5603 210.883 17.563C210.883 17.5657 210.883 17.5684 210.883 17.5711C210.883 17.5738 210.883 17.5765 210.883 17.5792C210.883 17.5819 210.883 17.5846 210.883 17.5873C210.883 17.59 210.883 17.5927 210.883 17.5954C210.883 17.5981 210.883 17.6008 210.883 17.6035C210.883 17.6062 210.883 17.609 210.883 17.6117C210.883 17.6144 210.883 17.6171 210.883 17.6198C210.883 17.6225 210.883 17.6252 210.883 17.6279C210.883 17.6306 210.883 17.6333 210.883 17.636C210.883 17.6387 210.883 17.6415 210.883 17.6442C210.883 17.6469 210.883 17.6496 210.883 17.6523C210.883 17.655 210.883 17.6577 210.883 17.6604C210.883 17.6632 210.883 17.6659 210.883 17.6686C210.883 17.6713 210.883 17.674 210.883 17.6767C210.883 17.6794 210.883 17.6822 210.883 17.6849C210.883 17.6876 210.883 17.6903 210.883 17.693C210.883 17.6958 210.883 17.6985 210.883 17.7012C210.883 17.7039 210.883 17.7066 210.883 17.7094C210.883 17.7121 210.883 17.7148 210.883 17.7175C210.883 17.7202 210.883 17.723 210.883 17.7257C210.883 17.7284 210.883 17.7311 210.883 17.7339C210.883 17.7366 210.883 17.7393 210.883 17.742C210.883 17.7448 210.883 17.7475 210.883 17.7502C210.883 17.7529 210.883 17.7557 210.883 17.7584C210.883 17.7611 210.883 17.7639 210.883 17.7666C210.883 17.7693 210.883 17.772 210.883 17.7748C210.883 17.7775 210.883 17.7802 210.883 17.783C210.883 17.7857 210.883 17.7884 210.883 17.7912C210.883 17.7939 210.883 17.7966 210.883 17.7994C210.883 17.8021 210.883 17.8048 210.883 17.8076C210.883 17.8103 210.883 17.813 210.883 17.8158C210.883 17.8185 210.883 17.8212 210.883 17.824C210.883 17.8267 210.883 17.8295 210.883 17.8322C210.883 17.8349 210.883 17.8377 210.883 17.8404C210.883 17.8432 210.883 17.8459 210.883 17.8486C210.883 17.8514 210.883 17.8541 210.883 17.8569C210.883 17.8596 210.883 17.8624 210.883 17.8651C210.883 17.8678 210.883 17.8706 210.883 17.8733C210.883 17.8761 210.883 17.8788 210.883 17.8816C210.883 17.8843 210.883 17.8871 210.883 17.8898C210.883 17.8926 210.883 17.8953 210.883 17.898C210.883 17.9008 210.883 17.9035 210.883 17.9063C210.883 17.909 210.883 17.9118 210.883 17.9145C210.883 17.9173 210.883 17.92 210.883 17.9228C210.883 17.9256 210.883 17.9283 210.883 17.9311C210.883 17.9338 210.883 17.9366 210.883 17.9393C210.883 17.9421 210.883 17.9448 210.883 17.9476C210.883 17.9503 210.883 17.9531 210.883 17.9559C210.883 17.9586 210.883 17.9614 210.883 17.9641C210.883 17.9669 210.883 17.9696 210.883 17.9724C210.883 17.9752 210.883 17.9779 210.883 17.9807C210.883 17.9834 210.883 17.9862 210.883 17.989C210.883 17.9917 210.883 17.9945 210.883 17.9973C210.883 18 210.883 18.0028 210.883 18.0055C210.883 18.0083 210.883 18.0111 210.883 18.0138C210.883 18.0166 210.883 18.0194 210.883 18.0221C210.883 18.0249 210.883 18.0277 210.883 18.0304C210.883 18.0332 210.883 18.036 210.883 18.0387C210.883 18.0415 210.883 18.0443 210.883 18.0471C210.883 18.0498 210.883 18.0526 210.883 18.0554C210.883 18.0581 210.883 18.0609 210.883 18.0637C210.883 18.0664 210.883 18.0692 210.883 18.072C210.883 18.0748 210.883 18.0775 210.883 18.0803C210.883 18.0831 210.883 18.0859 210.883 18.0886C210.883 18.0914 210.883 18.0942 210.883 18.097C210.883 18.0998 210.883 18.1025 210.883 18.1053C210.883 18.1081 210.883 18.1109 210.883 18.1136C210.883 18.1164 210.883 18.1192 210.883 18.122C210.883 18.1248 210.883 18.1275 210.883 18.1303C210.883 18.1331 210.883 18.1359 210.883 18.1387C210.883 18.1415 210.883 18.1442 210.883 18.147C210.883 18.1498 210.883 18.1526 210.883 18.1554C210.883 18.1582 210.883 18.161 210.883 18.1637C210.883 18.1665 210.883 18.1693 210.883 18.1721C210.883 18.1749 210.883 18.1777 210.883 18.1805C210.883 18.1833 210.883 18.1861 210.883 18.1888C210.883 18.1916 210.883 18.1944 210.883 18.1972C210.883 18.2 210.883 18.2028 210.883 18.2056C210.883 18.2084 210.883 18.2112 210.883 18.214C210.883 18.2168 210.883 18.2196 210.883 18.2224C210.883 18.2251 210.883 18.2279 210.883 18.2307C210.883 18.2335 210.883 18.2363 210.883 18.2391C210.883 18.2419 210.883 18.2447 210.883 18.2475C210.883 18.2503 210.883 18.2531 210.883 18.2559C210.883 18.2587 210.883 18.2615 210.883 18.2643C210.883 18.2671 210.883 18.2699 210.883 18.2727C210.883 18.2755 210.883 18.2783 210.883 18.2811C210.883 18.2839 210.883 18.2867 210.883 18.2896C210.883 18.2924 210.883 18.2952 210.883 18.298C210.883 18.3008 210.883 18.3036 210.883 18.3064C210.883 18.3092 210.883 18.312 210.883 18.3148C210.883 18.3176 210.883 18.3204 210.883 18.3232C210.883 18.326 210.883 18.3289 210.883 18.3317C210.883 18.3345 210.883 18.3373 210.883 18.3401C210.883 18.3429 210.883 18.3457 210.883 18.3485C210.883 18.3514 210.883 18.3542 210.883 18.357C210.883 18.3598 210.883 18.3626 210.883 18.3654C210.883 18.3682 210.883 18.3711 210.883 18.3739C210.883 18.3767 210.883 18.3795 210.883 18.3823C210.883 18.3851 210.883 18.388 210.883 18.3908C210.883 18.3936 210.883 18.3964 210.883 18.3992C210.883 18.4021 210.883 18.4049 210.883 18.4077C210.883 18.4105 210.883 18.4133 210.883 18.4162C210.883 18.419 210.883 18.4218 210.883 18.4246C210.883 18.4275 210.883 18.4303 210.883 18.4331C210.883 18.4359 210.883 18.4388 210.883 18.4416C210.883 18.4444 210.883 18.4472 210.883 18.4501C210.883 18.4529 210.883 18.4557 210.883 18.4586C210.883 18.4614 210.883 18.4642 210.883 18.467C210.883 18.4699 210.883 18.4727 210.883 18.4755C210.883 18.4784 210.883 18.4812 210.883 18.484C210.883 18.4869 210.883 18.4897 210.883 18.4925C210.883 18.4954 210.883 18.4982 210.883 18.501C210.883 18.5039 210.883 18.5067 210.883 18.5095C210.883 18.5124 210.883 18.5152 210.883 18.518C210.883 18.5209 210.883 18.5237 210.883 18.5266C210.883 18.5294 210.883 18.5322 210.883 18.5351C210.883 18.5379 210.883 18.5408 210.883 18.5436C210.883 18.5464 210.883 18.5493 210.883 18.5521C210.883 18.555 210.883 18.5578 210.883 18.5606C210.883 18.5635 210.883 18.5663 210.883 18.5692C210.883 18.572 210.883 18.5749 210.883 18.5777C210.883 18.5806 210.883 18.5834 210.883 18.5863C210.883 18.5891 210.883 18.5919 210.883 18.5948C210.883 18.5976 210.883 18.6005 210.883 18.6033C210.883 18.6062 210.883 18.609 210.883 18.6119C210.883 18.6147 210.883 18.6176 210.883 18.6204C210.883 18.6233 210.883 18.6261 210.883 18.629C210.883 18.6318 210.883 18.6347 210.883 18.6376C210.883 18.6404 210.883 18.6433 210.883 18.6461C210.883 18.649 210.883 18.6518 210.883 18.6547C210.883 18.6575 210.883 18.6604 210.883 18.6633C210.883 18.6661 210.883 18.669 210.883 18.6718C210.883 18.6747 210.883 18.6775 210.883 18.6804C210.883 18.6833 210.883 18.6861 210.883 18.689C210.883 18.6918 210.883 18.6947 210.883 18.6976C210.883 18.7004 210.883 18.7033 210.883 18.7062C210.883 18.709 210.883 18.7119 210.883 18.7148C210.883 18.7176 210.883 18.7205 210.883 18.7234C210.883 18.7262 210.883 18.7291 210.883 18.7319C210.883 18.7348 210.883 18.7377 210.883 18.7406C210.883 18.7434 210.883 18.7463 210.883 18.7492C210.883 18.752 210.883 18.7549 210.883 18.7578C210.883 18.7606 210.883 18.7635 210.883 18.7664C210.883 18.7693 210.883 18.7721 210.883 18.775C210.883 18.7779 210.883 18.7807 210.883 18.7836C210.883 18.7865 210.883 18.7894 210.883 18.7922C210.883 18.7951 210.883 18.798 210.883 18.8009C210.883 18.8037 210.883 18.8066 210.883 18.8095C210.883 18.8124 210.883 18.8153 210.883 18.8181C210.883 18.821 210.883 18.8239 210.883 18.8268C210.883 18.8297 210.883 18.8325 210.883 18.8354C210.883 18.8383 210.883 18.8412 210.883 18.8441C210.883 18.8469 210.883 18.8498 210.883 18.8527C210.883 18.8556 210.883 18.8585 210.883 18.8614C210.883 18.8643 210.883 18.8671 210.883 18.87C210.883 18.8729 210.883 18.8758 210.883 18.8787C210.883 18.8816 210.883 18.8845 210.883 18.8873C210.883 18.8902 210.883 18.8931 210.883 18.896C210.883 18.8989 210.883 18.9018 210.883 18.9047C210.883 18.9076 210.883 18.9105 210.883 18.9134C210.883 18.9163 210.883 18.9191 210.883 18.922C210.883 18.9249 210.883 18.9278 210.883 18.9307C210.883 18.9336 210.883 18.9365 210.883 18.9394C210.883 18.9423 210.883 18.9452 210.883 18.9481C210.883 18.951 210.883 18.9539 210.883 18.9568C210.883 18.9597 210.883 18.9626 210.883 18.9655C210.883 18.9684 210.883 18.9713 210.883 18.9742C210.883 18.9771 210.883 18.98 210.883 18.9829C210.883 18.9858 210.883 18.9887 210.883 18.9916C210.883 18.9945 210.883 18.9974 210.883 19.0003C210.883 19.0032 210.883 19.0061 210.883 19.009C210.883 19.0119 210.883 19.0148 210.883 19.0177C210.883 19.0206 210.883 19.0236 210.883 19.0265C210.883 19.0294 210.883 19.0323 210.883 19.0352C210.883 19.0381 210.883 19.041 210.883 19.0439C210.883 19.0468 210.883 19.0497 210.883 19.0526C210.883 19.0556 210.883 19.0585 210.883 19.0614C210.883 19.0643 210.883 19.0672 210.883 19.0701C210.883 19.073 210.883 19.0759 210.883 19.0789C210.883 19.0818 210.883 19.0847 210.883 19.0876C210.883 19.0905 210.883 19.0934 210.883 19.0964C210.883 19.0993 210.883 19.1022 210.883 19.1051C210.883 19.108 210.883 19.111 210.883 19.1139C210.883 19.1168 210.883 19.1197 210.883 19.1226C210.883 19.1255 210.883 19.1285 210.883 19.1314C210.883 19.1343 210.883 19.1372 210.883 19.1402C210.883 19.1431 210.883 19.146 210.883 19.1489C210.883 19.1519 210.883 19.1548 210.883 19.1577C210.883 19.1606 210.883 19.1636 210.883 19.1665C210.883 19.1694 210.883 19.1723 210.883 19.1753C210.883 19.1782 210.883 19.1811 210.883 19.1841C210.883 19.187 210.883 19.1899 210.883 19.1928C210.883 19.1958 210.883 19.1987 210.883 19.2016C210.883 19.2046 210.883 19.2075 210.883 19.2104C210.883 19.2134 210.883 19.2163 210.883 19.2192C210.883 19.2222 210.883 19.2251 210.883 19.228C210.883 19.231 210.883 19.2339 210.883 19.2368C210.883 19.2398 210.883 19.2427 210.883 19.2457C210.883 19.2486 210.883 19.2515 210.883 19.2545C210.883 19.2574 210.883 19.2603 210.883 19.2633C210.883 19.2662 210.883 19.2692 210.883 19.2721C210.883 19.2751 210.883 19.278 210.883 19.2809C210.883 19.2839 210.883 19.2868 210.883 19.2898C210.883 19.2927 210.883 19.2957 210.883 19.2986C210.883 19.3015 210.883 19.3045 210.883 19.3074C210.883 19.3104 210.883 19.3133 210.883 19.3163C210.883 19.3192 210.883 19.3222 210.883 19.3251C210.883 19.3281 210.883 19.331 210.883 19.334C210.883 19.3369 210.883 19.3399 210.883 19.3428C210.883 19.3458 210.883 19.3487 210.883 19.3517C210.883 19.3546 210.883 19.3576 210.883 19.3605C210.883 19.3635 210.883 19.3664 210.883 19.3694C210.883 19.3723 210.883 19.3753 210.883 19.3783C210.883 19.3812 210.883 19.3842 210.883 19.3871C210.883 19.3901 210.883 19.393 210.883 19.396C210.883 19.399 210.883 19.4019 210.883 19.4049C210.883 19.4078 210.883 19.4108 210.883 19.4137C210.883 19.4167 210.883 19.4197 210.883 19.4226C210.883 19.4256 210.883 19.4286 210.883 19.4315C210.883 19.4345 210.883 19.4374 210.883 19.4404C210.883 19.4434 210.883 19.4463 210.883 19.4493C210.883 19.4523 210.883 19.4552 210.883 19.4582C210.883 19.4612 210.883 19.4641 210.883 19.4671C210.883 19.4701 210.883 19.473 210.883 19.476C210.883 19.479 210.883 19.4819 210.883 19.4849C210.883 19.4879 210.883 19.4909 210.883 19.4938C210.883 19.4968 210.883 19.4998 210.883 19.5027C210.883 19.5057 210.883 19.5087 210.883 19.5117C210.883 19.5146 210.883 19.5176 210.883 19.5206C210.883 19.5236 210.883 19.5265 210.883 19.5295C210.883 19.5325 210.883 19.5355 210.883 19.5384C210.883 19.5414 210.883 19.5444 210.883 19.5474C210.883 19.5504 210.883 19.5533 210.883 19.5563C210.883 19.5593 210.883 19.5623 210.883 19.5653C210.883 19.5682 210.883 19.5712 210.883 19.5742C210.883 19.5772 210.883 19.5802 210.883 19.5831C210.883 19.5861 210.883 19.5891 210.883 19.5921C210.883 19.5951 210.883 19.5981 210.883 19.601C210.883 19.604 210.883 19.607 210.883 19.61C210.883 19.613 210.883 19.616 210.883 19.619C210.883 19.622 210.883 19.6249 210.883 19.6279C210.883 19.6309 210.883 19.6339 210.883 19.6369C210.883 19.6399 210.883 19.6429 210.883 19.6459C210.883 19.6489 210.883 19.6519 210.883 19.6549C210.883 19.6578 210.883 19.6608 210.883 19.6638C210.883 19.6668 210.883 19.6698 210.883 19.6728C210.883 19.6758 210.883 19.6788 210.883 19.6818C210.883 19.6848 210.883 19.6878 210.883 19.6908C210.883 19.6938 210.883 19.6968 210.883 19.6998C210.883 19.7028 210.883 19.7058 210.883 19.7088C210.883 19.7118 210.883 19.7148 210.883 19.7178C210.883 19.7208 210.883 19.7238 210.883 19.7268C210.883 19.7298 210.883 19.7328 210.883 19.7358C210.883 19.7388 210.883 19.7418 210.883 19.7448C210.883 19.7478 210.883 19.7508 210.883 19.7538C210.883 19.7568 210.883 19.7598 210.883 19.7628C210.883 19.7659 210.883 19.7689 210.883 19.7719C210.883 19.7749 210.883 19.7779 210.883 19.7809C210.883 19.7839 210.883 19.7869 210.883 19.7899C210.883 19.7929 210.883 19.7959 210.883 19.799C210.883 19.802 210.883 19.805 210.883 19.808C210.883 19.811 210.883 19.814 210.883 19.817C210.883 19.8201 210.883 19.8231 210.883 19.8261C210.883 19.8291 210.883 19.8321 210.883 19.8351C210.883 19.8381 210.883 19.8412 210.883 19.8442C210.883 19.8472 210.883 19.8502 210.883 19.8532C210.883 19.8563 210.883 19.8593 210.883 19.8623C210.883 19.8653 210.883 19.8683 210.883 19.8714C210.883 19.8744 210.883 19.8774 210.883 19.8804C210.883 19.8834 210.883 19.8865 210.883 19.8895C210.883 19.8925 210.883 19.8955 210.883 19.8986C210.883 19.9016 210.883 19.9046 210.883 19.9076C210.883 19.9107 210.883 19.9137 210.883 19.9167C210.883 19.9198 210.883 19.9228 210.883 19.9258C210.883 19.9288 210.883 19.9319 210.883 19.9349C210.883 19.9379 210.883 19.941 210.883 19.944C210.883 19.947 210.883 19.9501 210.883 19.9531C210.883 19.9561 210.883 19.9591 210.883 19.9622C210.883 19.9652 210.883 19.9682 210.883 19.9713C210.883 19.9743 210.883 19.9774 210.883 19.9804C210.883 19.9834 210.883 19.9865 210.883 19.9895C210.883 19.9925 210.883 19.9956 210.883 19.9986C210.883 20.0016 210.883 20.0047 210.883 20.0077C210.883 20.0108 210.883 20.0138 210.883 20.0168C210.883 20.0199 210.883 20.0229 210.883 20.026C210.883 20.029 210.883 20.0321 210.883 20.0351C210.883 20.0381 210.883 20.0412 210.883 20.0442C210.883 20.0473 210.883 20.0503 210.883 20.0534C210.883 20.0564 210.883 20.0595 210.883 20.0625C210.883 20.0655 210.883 20.0686 210.883 20.0716C210.883 20.0747 210.883 20.0777 210.883 20.0808C210.883 20.0838 210.883 20.0869 210.883 20.0899C210.883 20.093 210.883 20.096 210.883 20.0991C210.883 20.1021 210.883 20.1052 210.883 20.1082C210.883 20.1113 210.883 20.1143 210.883 20.1174C210.883 20.1205 210.883 20.1235 210.883 20.1266C210.883 20.1296 210.883 20.1327 210.883 20.1357C210.883 20.1388 210.883 20.1418 210.883 20.1449C210.883 20.148 210.883 20.151 210.883 20.1541C210.883 20.1571 210.883 20.1602 210.883 20.1633C210.883 20.1663 210.883 20.1694 210.883 20.1724C210.883 20.1755 210.883 20.1786 210.883 20.1816C210.883 20.1847 210.883 20.1877 210.883 20.1908C210.883 20.1939 210.883 20.1969 210.883 20.2C210.883 20.2031 210.883 20.2061 210.883 20.2092C210.883 20.2123 210.883 20.2153 210.883 20.2184C210.883 20.2215 210.883 20.2245 210.883 20.2276C210.883 20.2307 210.883 20.2337 210.883 20.2368C210.883 20.2399 210.883 20.2429 210.883 20.246C210.883 20.2491 210.883 20.2522 210.883 20.2552C210.883 20.2583 210.883 20.2614 210.883 20.2644C210.883 20.2675 210.883 20.2706 210.883 20.2737C210.883 20.2767 210.883 20.2798 210.883 20.2829C210.883 20.286 210.883 20.289 210.883 20.2921C210.883 20.2952 210.883 20.2983 210.883 20.3013C210.883 20.3044 210.883 20.3075 210.883 20.3106C210.883 20.3137 210.883 20.3167 210.883 20.3198C210.883 20.3229 210.883 20.326 210.883 20.3291C210.883 20.3321 210.883 20.3352 210.883 20.3383C210.883 20.3414 210.883 20.3445 210.883 20.3476C210.883 20.3506 210.883 20.3537 210.883 20.3568C210.883 20.3599 210.883 20.363 210.883 20.3661C210.883 20.3692 210.883 20.3722 210.883 20.3753C210.883 20.3784 210.883 20.3815 210.883 20.3846C210.883 20.3877 210.883 20.3908 210.883 20.3939C210.883 20.3969 210.883 20.4 210.883 20.4031C210.883 20.4062 210.883 20.4093 210.883 20.4124C210.883 20.4155 210.883 20.4186 210.883 20.4217C210.883 20.4248 210.883 20.4279 210.883 20.431C210.883 20.4341 210.883 20.4371 210.883 20.4402C210.883 20.4433 210.883 20.4464 210.883 20.4495C210.883 20.4526 210.883 20.4557 210.883 20.4588C210.883 20.4619 210.883 20.465 210.883 20.4681C210.883 20.4712 210.883 20.4743 210.883 20.4774C210.883 20.4805 210.883 20.4836 210.883 20.4867C210.883 20.4898 210.883 20.4929 210.883 20.496C210.883 20.4991 210.883 20.5022 210.883 20.5053C210.883 20.5084 210.883 20.5116 210.883 20.5147C210.883 20.5178 210.883 20.5209 210.883 20.524C210.883 20.5271 210.883 20.5302 210.883 20.5333C210.883 20.5364 210.883 20.5395 210.883 20.5426C210.883 20.5457 210.883 20.5488 210.883 20.5519C210.883 20.5551 210.883 20.5582 210.883 20.5613C210.883 20.5644 210.883 20.5675 210.883 20.5706C210.883 20.5737 210.883 20.5768 210.883 20.58C210.883 20.5831 210.883 20.5862 210.883 20.5893C210.883 20.5924 210.883 20.5955 210.883 20.5986C210.883 20.6018 210.883 20.6049 210.883 20.608C210.883 20.6111 210.883 20.6142 210.883 20.6173C210.883 20.6205 210.883 20.6236 210.883 20.6267C210.883 20.6298 210.883 20.6329 210.883 20.6361C210.883 20.6392 210.883 20.6423 210.883 20.6454C210.883 20.6485 210.883 20.6517 210.883 20.6548C210.883 20.6579 210.883 20.661 210.883 20.6642C210.883 20.6673 210.883 20.6704 210.883 20.6735C210.883 20.6767 210.883 20.6798 210.883 20.6829C210.883 20.686 210.883 20.6892 210.883 20.6923C210.883 20.6954 210.883 20.6986 210.883 20.7017C210.883 20.7048 210.883 20.7079 210.883 20.7111C210.883 20.7142 210.883 20.7173 210.883 20.7205C210.883 20.7236 210.883 20.7267 210.883 20.7299C210.883 20.733 210.883 20.7361 210.883 20.7393C210.883 20.7424 210.883 20.7455 210.883 20.7487C210.883 20.7518 210.883 20.7549 210.883 20.7581C210.883 20.7612 210.883 20.7644 210.883 20.7675C210.883 20.7706 210.883 20.7738 210.883 20.7769C210.883 20.78 210.883 20.7832 210.883 20.7863C210.883 20.7895 210.883 20.7926 210.883 20.7957C210.883 20.7989 210.883 20.802 210.883 20.8052C210.883 20.8083 210.883 20.8115 210.883 20.8146C210.883 20.8177 210.883 20.8209 210.883 20.824C210.883 20.8272 210.883 20.8303 210.883 20.8335C210.883 20.8366 210.883 20.8398 210.883 20.8429C210.883 20.8461 210.883 20.8492 210.883 20.8523C210.883 20.8555 210.883 20.8586 210.883 20.8618C210.883 20.8649 210.883 20.8681 210.883 20.8712C210.883 20.8744 210.883 20.8775 210.883 20.8807C210.883 20.8839 210.883 20.887 210.883 20.8902C210.883 20.8933 210.883 20.8965 210.883 20.8996C210.883 20.9028 210.883 20.9059 210.883 20.9091C210.883 20.9122 210.883 20.9154 210.883 20.9185C210.883 20.9217 210.883 20.9249 210.883 20.928C210.883 20.9312 210.883 20.9343 210.883 20.9375C210.883 20.9407 210.883 20.9438 210.883 20.947C210.883 20.9501 210.883 20.9533 210.883 20.9565C210.883 20.9596 210.883 20.9628 210.883 20.9659C210.883 20.9691 210.883 20.9723 210.883 20.9754C210.883 20.9786 210.883 20.9818 210.883 20.9849C210.883 20.9881 210.883 20.9913 210.883 20.9944C210.883 20.9976 210.883 21.0008 210.883 21.0039C210.883 21.0071 210.883 21.0103 210.883 21.0134C210.883 21.0166 210.883 21.0198 210.883 21.0229C210.883 21.0261 210.883 21.0293 210.883 21.0324C210.883 21.0356 210.883 21.0388 210.883 21.042C210.883 21.0451 210.883 21.0483 210.883 21.0515C210.883 21.0547 210.883 21.0578 210.883 21.061C210.883 21.0642 210.883 21.0674 210.883 21.0705C210.883 21.0737 210.883 21.0769 210.883 21.0801C210.883 21.0832 210.883 21.0864 210.883 21.0896C210.883 21.0928 210.883 21.0959 210.883 21.0991C210.883 21.1023 210.883 21.1055 210.883 21.1087C210.883 21.1118 210.883 21.115 210.883 21.1182C210.883 21.1214 210.883 21.1246 210.883 21.1278C210.883 21.1309 210.883 21.1341 210.883 21.1373C210.883 21.1405 210.883 21.1437 210.883 21.1469C210.883 21.1501 210.883 21.1532 210.883 21.1564C210.883 21.1596 210.883 21.1628 210.883 21.166C210.883 21.1692 210.883 21.1724 210.883 21.1755C210.883 21.1787 210.883 21.1819 210.883 21.1851C210.883 21.1883 210.883 21.1915 210.883 21.1947C210.883 21.1979 210.883 21.2011 210.883 21.2043C210.883 21.2075 210.883 21.2107 210.883 21.2138C210.883 21.217 210.883 21.2202 210.883 21.2234C210.883 21.2266 210.883 21.2298 210.883 21.233C210.883 21.2362 210.883 21.2394 210.883 21.2426C210.883 21.2458 210.883 21.249 210.883 21.2522C210.883 21.2554 210.883 21.2586 210.883 21.2618C210.883 21.265 210.883 21.2682 210.883 21.2714C210.883 21.2746 210.883 21.2778 210.883 21.281C210.883 21.2842 210.883 21.2874 210.883 21.2906C210.883 21.2938 210.883 21.297 210.883 21.3002C210.883 21.3034 210.883 21.3066 210.883 21.3098C210.883 21.313 210.883 21.3163 210.883 21.3195C210.883 21.3227 210.883 21.3259 210.883 21.3291C210.883 21.3323 210.883 21.3355 210.883 21.3387C210.883 21.3419 210.883 21.3451 210.883 21.3483C210.883 21.3515 210.883 21.3548 210.883 21.358C210.883 21.3612 210.883 21.3644 210.883 21.3676C210.883 21.3708 210.883 21.374 210.883 21.3773C210.883 21.3805 210.883 21.3837 210.883 21.3869C210.883 21.3901 210.883 21.3933 210.883 21.3965C210.883 21.3998 210.883 21.403 210.883 21.4062H211.883ZM211.883 16.9344H212.883V1.8129H211.883H210.883V16.9344H211.883ZM211.883 1.8129V2.8129H216.472V1.8129V0.812901H211.883V1.8129ZM216.472 1.8129H215.472V43H216.472H217.472V1.8129H216.472ZM216.472 43V42H212.177V43V44H216.472V43ZM212.177 43L212.972 42.3936L186.142 7.20808L185.346 7.81445L184.551 8.42081L211.382 43.6064L212.177 43ZM185.346 7.81445L186.215 8.31059L186.921 7.07498L186.052 6.57884L185.184 6.0827L184.478 7.31831L185.346 7.81445ZM186.052 6.57884L185.055 6.65363C185.172 8.21502 185.27 9.75657 185.348 11.2783L186.347 11.2271L187.345 11.1759C187.266 9.638 187.168 8.08072 187.05 6.50405L186.052 6.57884ZM186.347 11.2271L185.35 11.3038C185.466 12.8187 185.544 14.2733 185.582 15.6678L186.582 15.64L187.582 15.6122C187.542 14.1825 187.462 12.6951 187.344 11.1504L186.347 11.2271ZM186.582 15.64L185.583 15.6955C185.662 17.1016 185.72 18.3886 185.759 19.5567L186.758 19.5234L187.758 19.49C187.718 18.3046 187.659 17.0026 187.58 15.5845L186.582 15.64ZM186.758 19.5234L185.759 19.5567C185.798 20.7266 185.817 21.7151 185.817 22.5241H186.817H187.817C187.817 21.6857 187.797 20.6736 187.758 19.49L186.758 19.5234ZM186.817 22.5241L185.818 22.5717C185.858 23.3948 185.876 23.9623 185.876 24.2893H186.876H187.876C187.876 23.9102 187.855 23.3009 187.816 22.4766L186.817 22.5241ZM186.876 24.2893H185.876V43H186.876H187.876V24.2893H186.876ZM186.876 43V42H182.287V43V44H186.876V43Z" fill="black" mask="url(#path-1-outside-1_287_704)"/>
</g>
<defs>
<filter id="filter0_d_287_704" x="0.521606" y="0.401031" width="220.95" height="52.1873" filterUnits="userSpaceOnUse" color-interpolation-filters="sRGB">
<feFlood flood-opacity="0" result="BackgroundImageFix"/>
<feColorMatrix in="SourceAlpha" type="matrix" values="0 0 0 0 0 0 0 0 0 0 0 0 0 0 0 0 0 0 127 0" result="hardAlpha"/>
<feOffset dy="4"/>
<feGaussianBlur stdDeviation="2"/>
<feComposite in2="hardAlpha" operator="out"/>
<feColorMatrix type="matrix" values="0 0 0 0 0 0 0 0 0 0 0 0 0 0 0 0 0 0 0.25 0"/>
<feBlend mode="normal" in2="BackgroundImageFix" result="effect1_dropShadow_287_704"/>
<feBlend mode="normal" in="SourceGraphic" in2="effect1_dropShadow_287_704" result="shape"/>
</filter>
</defs>
</svg>
